<svg width="195" height="57" viewBox="0 0 195 57" fill="none" xmlns="http://www.w3.org/2000/svg">
<path d="M14.7426 0.5H44.3902C45.1064 0.5 45.7989 0.756176 46.3426 1.22223L48.1574 2.77777C48.7011 3.24382 49.3936 3.5 50.1098 3.5H182.757C183.553 3.5 184.316 3.81607 184.879 4.37868L193.621 13.1213C194.184 13.6839 194.5 14.447 194.5 15.2426V27.7574C194.5 28.553 194.184 29.3161 193.621 29.8787L190.379 33.1213C189.816 33.6839 189.5 34.447 189.5 35.2426V46.2574C189.5 47.053 189.184 47.8161 188.621 48.3787L181.379 55.6213C180.816 56.1839 180.053 56.5 179.257 56.5H150.529C149.862 56.5 149.214 56.2776 148.688 55.8681L145.812 53.6319C145.286 53.2224 144.638 53 143.971 53H11.7426C10.947 53 10.1839 52.6839 9.62132 52.1213L1.37868 43.8787C0.816071 43.3161 0.5 42.553 0.5 41.7574V29.7426C0.5 28.947 0.816069 28.1839 1.37868 27.6213L4.12132 24.8787C4.68393 24.3161 5 23.553 5 22.7574V10.2426C5 9.44699 5.31607 8.68393 5.87868 8.12132L12.6213 1.37868C13.1839 0.816071 13.947 0.5 14.7426 0.5Z" fill="url(#paint0_linear_447_1706)"/>
<defs>
<linearGradient id="paint0_linear_447_1706" x1="97.5" y1="0.5" x2="97.5" y2="56.5" gradientUnits="userSpaceOnUse">
<stop stop-color="#3E3F47"/>
<stop offset="1" stop-color="#1C2229"/>
</linearGradient>
</defs>
</svg>
