<svg width="195" height="57" viewBox="0 0 195 57" fill="none" xmlns="http://www.w3.org/2000/svg">
<path d="M180.672 0.5H150.24C149.762 0.5 149.301 0.670784 148.938 0.981487L146.562 3.01851C146.199 3.32922 145.738 3.5 145.26 3.5H11.8284C11.298 3.5 10.7893 3.71071 10.4142 4.08579L1.08578 13.4142C0.710709 13.7893 0.5 14.298 0.5 14.8284V28.1716C0.5 28.702 0.710709 29.2107 1.08578 29.5858L4.91422 33.4142C5.28929 33.7893 5.5 34.298 5.5 34.8284V46.6716C5.5 47.202 5.71071 47.7107 6.08578 48.0858L13.9142 55.9142C14.2893 56.2893 14.798 56.5 15.3284 56.5H44.8138C45.2585 56.5 45.6906 56.3518 46.0417 56.0787L49.4583 53.4213C49.8094 53.1482 50.2415 53 50.6862 53H184.609C185.176 53 185.717 52.7594 186.096 52.3379L193.987 43.5705C194.317 43.2032 194.5 42.7266 194.5 42.2325V29.3284C194.5 28.798 194.289 28.2893 193.914 27.9142L190.586 24.5858C190.211 24.2107 190 23.702 190 23.1716V9.82843C190 9.29799 189.789 8.78929 189.414 8.41421L182.086 1.08579C181.711 0.710714 181.202 0.5 180.672 0.5Z" fill="url(#paint0_linear_447_1711)"/>
<defs>
<linearGradient id="paint0_linear_447_1711" x1="97.5" y1="0.5" x2="97.5" y2="56.5" gradientUnits="userSpaceOnUse">
<stop stop-color="#DAB46E"/>
<stop offset="1" stop-color="#C69749"/>
</linearGradient>
</defs>
</svg>
