<svg width="111" height="56" viewBox="0 0 111 56" fill="none" xmlns="http://www.w3.org/2000/svg">
<path d="M110.586 3.9124L65.3759 3.92212L57.1015 3.92429L55.0328 3.92537L53.9989 3.92537L53.7406 3.92537L53.6112 3.92537C53.5684 3.92537 53.5256 3.92537 53.4758 3.92375C53.2841 3.92105 53.0902 3.90214 52.9012 3.86648C52.5227 3.79571 52.1549 3.66389 51.8208 3.47264C51.6529 3.37756 51.4937 3.26898 51.3442 3.14742C51.27 3.0853 51.1969 3.02371 51.1281 2.95618C51.0919 2.92214 51.0615 2.89135 51.0312 2.86056L50.9402 2.7698L49.4775 1.31169L49.5928 1.43703C49.3659 1.23552 49.106 1.07183 48.8265 0.954596C48.5455 0.838446 48.2465 0.766051 47.9438 0.748762C47.9059 0.74444 47.8674 0.745524 47.8295 0.743365L47.7732 0.74174L47.7093 0.741739L47.4499 0.741739L46.9333 0.741739L45.8994 0.741739L41.7619 0.743364L25.2142 0.745522L19.1953 0.732013L17.1271 0.730934L16.0933 0.729854L15.5761 0.729854L15.3172 0.729854L15.2528 0.729854L15.1959 0.732013C15.158 0.732555 15.1196 0.732555 15.0817 0.736877C14.7768 0.753623 14.4767 0.827636 14.1951 0.943248C13.9135 1.06156 13.6514 1.22579 13.424 1.42838C13.3178 1.52508 13.1895 1.65636 13.0692 1.77521L12.7026 2.14041L11.971 2.87028L8.82506 6.00258L5.89687 8.9177L5.80535 9.009C5.77448 9.03979 5.7436 9.07059 5.71814 9.0976C5.66399 9.15163 5.61418 9.20943 5.5649 9.26724C5.46796 9.38555 5.38076 9.51088 5.30549 9.64378C5.15114 9.9085 5.04554 10.1991 4.98652 10.499C4.95673 10.6486 4.94211 10.8021 4.93886 10.9544L4.93723 11.0111L4.93723 11.0754L4.93723 11.2045L4.93723 11.4628L4.9367 12.4935L4.92858 20.7478L4.92694 22.8115L4.92694 23.0692C4.92586 23.1573 4.92748 23.2362 4.92423 23.335C4.91935 23.5257 4.90041 23.7154 4.86304 23.9028C4.78884 24.2756 4.65616 24.6381 4.46228 24.9671C4.36643 25.1319 4.25703 25.2885 4.13626 25.4349L4.04257 25.543L3.94348 25.6467C3.8785 25.7137 3.82055 25.7704 3.75827 25.8326L3.02661 26.5619L4.27004 25.3177L1.57418 28.2334C1.44583 28.3598 1.34618 28.4614 1.24816 28.5845C1.15122 28.705 1.0662 28.8336 0.991457 28.9692C0.843073 29.2393 0.736918 29.5332 0.685473 29.8373C0.660021 29.9886 0.64432 30.1437 0.64432 30.2976L0.643771 30.8125L0.642702 31.8438L0.626451 37.5471L0.605333 43.2504L0.592866 45.3141C0.584199 45.9456 0.789994 46.575 1.17558 47.079C1.22216 47.1428 1.2747 47.2022 1.32669 47.2616L1.40683 47.3486L1.4978 47.4405L1.85956 47.8089L2.58092 48.5469L4.02362 50.026C5.93477 52.0028 7.84702 53.986 9.72784 56C7.70838 54.1232 5.7214 52.2162 3.73714 50.3032L2.25382 48.8651L1.51405 48.1449L1.14525 47.784L1.05264 47.6938L0.95572 47.5939C0.892899 47.5253 0.830621 47.4561 0.773759 47.3827C0.307481 46.8024 0.0523996 46.0547 0.0513162 45.3114L0.0393993 43.2477L0.0166642 37.5449L0.000414099 31.8416L-0.000135127 30.8103L-0.000135082 30.2928C-0.000135065 30.1026 0.0171989 29.913 0.0491509 29.7266C0.111971 29.3522 0.240862 28.9892 0.423907 28.6564C0.514887 28.4894 0.621028 28.3306 0.739626 28.1826C0.854975 28.0351 0.997408 27.8898 1.1133 27.7758L3.80323 24.8547L2.55655 26.0951L3.28711 25.3647C3.34722 25.3053 3.41275 25.241 3.46691 25.1843L3.54598 25.1005L3.62071 25.0136C3.71874 24.8942 3.807 24.7677 3.88336 24.6348C4.03879 24.3701 4.1444 24.0768 4.20505 23.7759C4.23484 23.6257 4.24946 23.4717 4.25325 23.3183C4.2565 23.2459 4.25433 23.1519 4.25487 23.0687L4.25487 22.8099L4.25325 20.7468L4.24512 12.493L4.24459 11.4611L4.24459 11.2035L4.24459 11.0749L4.24459 11.0106L4.2462 10.9387C4.25 10.7475 4.26786 10.5568 4.30469 10.3688C4.37726 9.99332 4.50885 9.62919 4.70057 9.29803C4.79588 9.13164 4.90474 8.97389 5.02497 8.82586C5.08725 8.75239 5.14952 8.68054 5.21721 8.61193C5.25133 8.57627 5.28112 8.54656 5.31199 8.51576L5.40296 8.425L8.32521 5.50448L11.4657 2.36624L12.1968 1.63529L12.5618 1.27063C12.6864 1.14746 12.7974 1.03131 12.9452 0.895705C13.2322 0.639632 13.5615 0.433261 13.9157 0.283614C14.271 0.136668 14.649 0.0448334 15.0335 0.0221436C15.0811 0.0172799 15.1293 0.0172837 15.177 0.016742L15.249 0.0151208L15.3135 0.0151208L15.5729 0.0151208L16.0895 0.0151208L17.1228 0.0145792L19.1915 0.013496L25.2104 -3.64907e-06L41.7587 0.00161523L45.8956 0.00377471L46.9295 0.0037748L47.4466 0.00377485L47.705 0.00377487L47.7694 0.00377487L47.8431 0.00485825C47.8913 0.00701738 47.9389 0.0070212 47.9877 0.0108016C48.3727 0.0334914 48.7534 0.125868 49.1092 0.272814C49.4645 0.421381 49.7959 0.629916 50.0835 0.885989C50.2324 1.02213 50.3429 1.1399 50.4674 1.26145L50.833 1.62665L51.5641 2.35705L52.1105 2.90215L49.9936 0.793604L51.4558 2.25279L51.5468 2.34355C51.5776 2.37543 51.6074 2.40459 51.635 2.4289C51.6892 2.48239 51.7471 2.53101 51.8045 2.58017C51.9226 2.67633 52.0482 2.76169 52.1809 2.83679C52.4436 2.98805 52.7344 3.09232 53.0339 3.1485C53.1828 3.17767 53.335 3.19172 53.4872 3.19442C53.5229 3.19604 53.5662 3.19605 53.6096 3.19605L53.739 3.19605L53.9973 3.19605L55.0311 3.19605L57.0999 3.19713L65.3738 3.19929L109 3.20901" fill="#8E8E8E"/>
</svg>
