<svg width="111" height="56" viewBox="0 0 111 56" fill="none" xmlns="http://www.w3.org/2000/svg">
<path d="M110.586 52.0876L65.3759 52.0779L57.1015 52.0757L55.0328 52.0746H53.9989H53.7406H53.6112C53.5684 52.0746 53.5256 52.0746 53.4758 52.0762C53.2841 52.0789 53.0902 52.0979 52.9012 52.1335C52.5227 52.2043 52.1549 52.3361 51.8208 52.5274C51.6529 52.6224 51.4937 52.731 51.3442 52.8526C51.27 52.9147 51.1969 52.9763 51.1281 53.0438C51.0919 53.0779 51.0615 53.1086 51.0312 53.1394L50.9402 53.2302L49.4775 54.6883L49.5928 54.563C49.3659 54.7645 49.106 54.9282 48.8265 55.0454C48.5455 55.1615 48.2465 55.2339 47.9438 55.2512C47.9059 55.2556 47.8674 55.2545 47.8295 55.2566L47.7732 55.2583H47.7093H47.4499H46.9333H45.8994L41.7619 55.2566L25.2142 55.2545L19.1953 55.268L17.1271 55.2691L16.0933 55.2701H15.5761H15.3172H15.2528L15.1959 55.268C15.158 55.2674 15.1196 55.2674 15.0816 55.2631C14.7768 55.2464 14.4767 55.1724 14.1951 55.0567C13.9135 54.9384 13.6514 54.7742 13.424 54.5716C13.3178 54.4749 13.1895 54.3436 13.0692 54.2248L12.7026 53.8596L11.971 53.1297L8.82506 49.9974L5.89687 47.0823L5.80534 46.991C5.77448 46.9602 5.74359 46.9294 5.71814 46.9024C5.66399 46.8484 5.61417 46.7906 5.5649 46.7328C5.46796 46.6144 5.38076 46.4891 5.30548 46.3562C5.15114 46.0915 5.04554 45.8008 4.98651 45.501C4.95673 45.3514 4.94211 45.1979 4.93886 45.0456L4.93723 44.9889V44.9246V44.7955V44.5372L4.93669 43.5065L4.92857 35.2522L4.92694 33.1884V32.9308C4.92586 32.8427 4.92747 32.7638 4.92422 32.665C4.91935 32.4743 4.90041 32.2846 4.86304 32.0972C4.78884 31.7244 4.65616 31.3619 4.46228 31.0329C4.36642 30.8681 4.25703 30.7115 4.13626 30.5651L4.04257 30.457L3.94348 30.3533C3.87849 30.2863 3.82055 30.2296 3.75827 30.1674L3.02661 29.4381L4.27003 30.6823L1.57417 27.7666C1.44582 27.6402 1.34618 27.5386 1.24815 27.4155C1.15121 27.295 1.06619 27.1664 0.991455 27.0308C0.843071 26.7607 0.736916 26.4668 0.685471 26.1627C0.660019 26.0114 0.644318 25.8563 0.644318 25.7024L0.643768 25.1875L0.6427 24.1562L0.62645 18.4529L0.605331 12.7496L0.592865 10.6859C0.584198 10.0544 0.789993 9.42499 1.17558 8.92095C1.22216 8.8572 1.2747 8.79778 1.32669 8.73835L1.40683 8.65137L1.4978 8.55953L1.85956 8.19109L2.58092 7.45312L4.02362 5.97395C5.93477 3.99722 7.84702 2.01401 9.72784 0C7.70838 1.87679 5.7214 3.78383 3.73714 5.69681L2.25381 7.13492L1.51405 7.85506L1.14525 8.21594L1.05264 8.30616L0.955719 8.4061C0.892899 8.47471 0.83062 8.54387 0.773758 8.61734C0.30748 9.19755 0.0523987 9.94524 0.0513153 10.6886L0.0393982 12.7523L0.0166626 18.4551L0.000411987 24.1584L-0.000137329 25.1897V25.7072C-0.000137329 25.8974 0.0171967 26.087 0.0491486 26.2734C0.111969 26.6478 0.24086 27.0108 0.423904 27.3436C0.514885 27.5105 0.621025 27.6694 0.739624 27.8174C0.854973 27.9649 0.997406 28.1102 1.1133 28.2242L3.80322 31.1453L2.55655 29.9049L3.28711 30.6353C3.34722 30.6947 3.41275 30.759 3.4669 30.8157L3.54597 30.8995L3.62071 30.9864C3.71873 31.1058 3.807 31.2322 3.88336 31.3651C4.03879 31.6299 4.14439 31.9232 4.20505 32.2241C4.23483 32.3743 4.24946 32.5283 4.25325 32.6817C4.2565 32.7541 4.25433 32.8481 4.25487 32.9313V33.1901L4.25325 35.2532L4.24512 43.507L4.24458 44.5388V44.7965V44.9251V44.9894L4.2462 45.0613C4.24999 45.2525 4.26786 45.4432 4.30469 45.6312C4.37726 46.0067 4.50885 46.3708 4.70056 46.702C4.79588 46.8684 4.90474 47.0261 5.02496 47.1741C5.08724 47.2476 5.14951 47.3195 5.21721 47.3881C5.25133 47.4237 5.28111 47.4534 5.31198 47.4842L5.40295 47.575L8.32521 50.4955L11.4657 53.6338L12.1968 54.3647L12.5618 54.7294C12.6864 54.8525 12.7974 54.9687 12.9452 55.1043C13.2322 55.3604 13.5615 55.5667 13.9157 55.7164C14.271 55.8633 14.649 55.9552 15.0335 55.9778C15.0811 55.9827 15.1293 55.9827 15.177 55.9832L15.249 55.9849H15.3134H15.5728H16.0895L17.1228 55.9854L19.1915 55.9865L25.2104 56L41.7587 55.9984L45.8956 55.9962H46.9295H47.4466H47.705H47.7694L47.8431 55.9951C47.8913 55.993 47.9389 55.993 47.9877 55.9892C48.3727 55.9665 48.7534 55.8741 49.1092 55.7272C49.4645 55.5786 49.7959 55.3701 50.0835 55.114C50.2324 54.9779 50.3429 54.8601 50.4674 54.7385L50.833 54.3733L51.5641 53.6429L52.1105 53.0978L49.9936 55.2064L51.4558 53.7472L51.5468 53.6564C51.5776 53.6246 51.6074 53.5954 51.635 53.5711C51.6892 53.5176 51.7471 53.469 51.8045 53.4198C51.9226 53.3237 52.0482 53.2383 52.1809 53.1632C52.4436 53.0119 52.7344 52.9077 53.0339 52.8515C53.1828 52.8223 53.335 52.8083 53.4872 52.8056C53.5229 52.804 53.5662 52.8039 53.6096 52.8039H53.739H53.9973H55.0311L57.0999 52.8029L65.3738 52.8007L109 52.791" fill="#DAB46E"/>
</svg>
