<svg width="343" height="398" viewBox="0 0 343 398" fill="none" xmlns="http://www.w3.org/2000/svg">
<path d="M342.377 10.2914H158.415C156.353 10.2914 154.375 9.47252 152.916 8.01383L144.902 0L151.237 9.2831C152.686 11.407 155.091 12.6777 157.662 12.6777H342.377V10.2914Z" fill="#DAB46E"/>
<path d="M146.989 14.4676C145.441 13.167 143.936 11.8231 142.438 10.4718C140.944 9.11755 139.466 7.74686 138 6.36424C137.264 5.67517 136.538 4.97715 135.809 4.28211C135.616 4.09866 135.47 3.96144 135.295 3.81975C135.122 3.68402 134.943 3.55426 134.754 3.4424C134.38 3.21121 133.971 3.04118 133.553 2.9144C133.133 2.79359 132.699 2.72051 132.263 2.71305L132.099 2.71156L131.913 2.71305L131.535 2.71753L130.781 2.722L127.759 2.73244L103.586 2.75183L55.2407 2.79509H54.486C54.3517 2.79359 54.2533 2.79807 54.1459 2.80105C54.0385 2.80702 53.9326 2.81447 53.8253 2.82641C53.4002 2.87413 52.9796 2.97556 52.5813 3.13365C52.1816 3.28728 51.8073 3.50206 51.4597 3.75263C51.2912 3.88388 51.1227 4.01662 50.972 4.16876L50.9138 4.22394L50.8467 4.29106L50.714 4.42529L50.447 4.69227L46.1783 8.96989L41.8843 13.2639C41.0386 14.0589 39.9767 14.6212 38.8446 14.8762C38.5627 14.9433 38.2749 14.9851 37.9855 15.0135C37.8408 15.0239 37.6962 15.0373 37.5515 15.0388L37.3397 15.0433H37.1503H35.6394L29.5958 15.0403L26.5741 15.0388H25.0632H24.6858H24.5009L24.3413 15.0433C24.128 15.0522 23.9147 15.0716 23.7044 15.1089C22.8602 15.2491 22.0593 15.6235 21.403 16.1723C21.1017 16.4259 20.7289 16.8256 20.3739 17.1717L19.3045 18.2396L15.0298 22.5112L6.48057 31.0545L4.34176 33.1859L3.8078 33.7198L3.54231 33.9853C3.46923 34.0644 3.39167 34.1375 3.32455 34.221C3.04117 34.5432 2.80402 34.9041 2.61609 35.2889C2.42816 35.6737 2.29243 36.0854 2.2104 36.5045C2.17013 36.7148 2.14478 36.9281 2.13135 37.1413C2.12539 37.2517 2.1239 37.3487 2.1224 37.4695V37.8468L2.12091 40.8686L2.11047 65.0413L2.0359 113.387L2.01651 125.474L2.00756 131.518L2.00308 134.539L2.0001 136.05V136.24V136.334L2.00159 136.416L2.00457 136.58L2.01651 136.744C2.02098 136.854 2.04186 136.961 2.0523 137.072C2.07318 137.179 2.08512 137.29 2.11196 137.395C2.29243 138.256 2.71602 139.063 3.30666 139.713C3.44686 139.864 3.63926 140.053 3.81376 140.229L4.34772 140.765L5.41414 141.834L9.67984 146.116L11.8201 148.272C12.6032 149.087 13.1565 150.118 13.419 151.216C13.4861 151.49 13.5294 151.769 13.5607 152.049C13.5726 152.19 13.5861 152.331 13.5891 152.472L13.5935 152.683V152.876L13.5905 154.387L13.5846 157.408L13.4817 205.754L13.431 229.927L13.425 232.948L13.4235 233.703C13.419 233.973 13.4071 234.252 13.3683 234.522C13.2997 235.066 13.1491 235.6 12.9417 236.107C12.7255 236.612 12.451 237.09 12.111 237.52C11.9454 237.738 11.7575 237.938 11.5666 238.131L11.0252 238.659L8.85503 240.762C5.94959 243.554 3.02178 246.324 0 249.001C2.67724 245.981 5.44696 243.053 8.23905 240.146L10.3421 237.976L10.8701 237.435C11.0281 237.266 11.1848 237.098 11.319 236.911C11.5994 236.546 11.8201 236.139 11.9961 235.715C12.1647 235.289 12.287 234.843 12.3407 234.388C12.372 234.16 12.378 233.933 12.3809 233.7L12.3794 232.945L12.3735 229.924L12.3228 205.751L12.2199 157.405L12.2139 154.384L12.2109 152.873L12.2094 152.688L12.2049 152.522C12.202 152.412 12.19 152.302 12.1811 152.191C12.1557 151.972 12.1199 151.753 12.0677 151.538C11.8589 150.679 11.4219 149.873 10.8074 149.238L8.67904 147.116L4.39694 142.85L3.32754 141.783L2.79209 141.25C2.61162 141.069 2.44308 140.906 2.24023 140.689C1.47509 139.852 0.927712 138.814 0.689072 137.703C0.654768 137.566 0.63687 137.424 0.610023 137.285C0.593616 137.143 0.569751 137.003 0.562294 136.862L0.545887 136.65L0.539922 136.436L0.536939 136.331V136.237V136.047L0.533957 134.536L0.529481 131.515L0.520532 125.471L0.501144 113.384L0.426569 65.0384L0.416128 40.8656L0.414637 37.8438V37.4665C0.416128 37.3367 0.41762 37.1816 0.426569 37.0399C0.444467 36.7506 0.47877 36.4642 0.532464 36.1793C0.642835 35.6111 0.824799 35.0577 1.07835 34.5372C1.33191 34.0167 1.65258 33.5289 2.03291 33.0934C2.12539 32.9816 2.2283 32.8801 2.32823 32.7742L2.5967 32.5058L3.13066 31.9718L5.26649 29.8345L13.8098 21.2852L18.0815 17.0106L19.1494 15.9412L19.6833 15.4072C19.8489 15.2416 20.0696 15.0194 20.2904 14.8389C21.1793 14.0947 22.2651 13.5876 23.4091 13.3952C23.694 13.3445 23.9833 13.3161 24.2727 13.3042L24.4904 13.2982L24.6828 13.2967H25.0602H26.5711L29.5928 13.2952L35.6364 13.2923H37.1473H37.3367C37.4023 13.2923 37.4471 13.2893 37.5023 13.2893C37.6097 13.2893 37.7156 13.2788 37.8215 13.2714C38.0332 13.249 38.245 13.2192 38.4539 13.17C39.2876 12.982 40.0662 12.5659 40.6896 11.9827L44.9493 7.73792L49.227 3.46924L49.4939 3.20226L49.6282 3.06952L49.6953 3.0024L49.7743 2.92783C49.9802 2.72349 50.2069 2.54153 50.4366 2.36702C50.9049 2.02696 51.4135 1.7391 51.9549 1.53178C52.4933 1.31999 53.0616 1.18277 53.6373 1.12013C53.7805 1.10372 53.9252 1.09477 54.0699 1.08732C54.213 1.08433 54.3667 1.07986 54.4845 1.08135H55.2392L103.586 1.1261L127.759 1.14698L130.781 1.15742L131.535 1.16189L131.913 1.16637L132.104 1.16935L132.318 1.17681C132.89 1.19918 133.455 1.30657 133.998 1.4766C134.539 1.65259 135.058 1.89869 135.533 2.21042C135.771 2.36404 135.996 2.53706 136.213 2.72051C136.425 2.90098 136.638 3.11874 136.8 3.29175C137.497 4.01961 138.193 4.74746 138.883 5.48277C140.265 6.94891 141.637 8.4255 142.99 9.92147C144.344 11.4145 145.688 12.9194 146.989 14.4676Z" fill="#EFCD8F"/>
<path d="M19.9144 243.413C16.4407 247.142 12.9089 250.812 9.36954 254.475L6.70721 257.214L5.37381 258.58L4.70562 259.262L4.53857 259.432L4.38942 259.593C4.29247 259.703 4.19702 259.813 4.11051 259.931C3.39906 260.864 3.01873 262.028 3.03514 263.198L3.05751 267.017L3.09927 297.574L3.1291 328.13L3.13059 330.039L3.13209 330.992C3.13358 331.277 3.16043 331.564 3.20815 331.844C3.30212 332.406 3.4975 332.952 3.77343 333.452C3.91065 333.702 4.06875 333.94 4.24773 334.163C4.4282 334.391 4.61165 334.579 4.8488 334.814L10.2555 340.21L12.9596 342.908L14.3109 344.258C14.4257 344.373 14.5331 344.477 14.6524 344.601L14.8344 344.793L15.0074 344.993C15.2311 345.265 15.4325 345.555 15.61 345.86C15.9664 346.468 16.2111 347.139 16.3498 347.83C16.4184 348.176 16.4542 348.528 16.4631 348.88C16.4691 349.063 16.4661 349.21 16.4676 349.372V349.849L16.4721 353.669L16.487 368.948L16.4885 370.857V371.334V371.573V371.692L16.4914 371.798C16.4974 372.082 16.5243 372.364 16.5795 372.641C16.6868 373.196 16.8822 373.736 17.1671 374.223C17.3088 374.468 17.4684 374.702 17.6474 374.921C17.7398 375.029 17.8308 375.136 17.9308 375.236C17.9755 375.285 18.0352 375.344 18.0918 375.4L18.2604 375.569L23.6671 380.965L34.476 391.764L35.8273 393.113L36.5029 393.789C36.7266 394.01 36.9623 394.254 37.1592 394.432C37.5798 394.806 38.063 395.112 38.5821 395.33C39.1026 395.543 39.6574 395.68 40.2197 395.712C40.2898 395.719 40.3599 395.717 40.43 395.72L40.5359 395.723H40.6552H41.1325H42.0871L43.9962 395.722L47.8159 395.72L58.9301 395.695L89.4865 395.698L97.126 395.701H99.0351H99.9896H100.467H100.586L100.691 395.698C100.761 395.695 100.831 395.697 100.901 395.689C101.462 395.658 102.014 395.522 102.531 395.309C103.047 395.091 103.529 394.788 103.947 394.415L114.733 383.648L117.434 380.949L117.603 380.78C117.658 380.725 117.715 380.668 117.782 380.604C117.909 380.479 118.044 380.364 118.18 380.249C118.456 380.024 118.751 379.824 119.06 379.648C119.677 379.293 120.356 379.05 121.056 378.919C121.405 378.852 121.761 378.817 122.116 378.813C122.209 378.81 122.288 378.81 122.367 378.81H122.605H123.083H124.992L128.811 378.811L144.09 378.816L224.647 378.834L285.761 378.893L301.04 378.908L308.679 378.916L312.499 378.919L314.408 378.92H314.647L314.909 378.926C315.084 378.935 315.258 378.947 315.431 378.971C315.777 379.016 316.122 379.086 316.456 379.187C317.124 379.392 317.761 379.702 318.326 380.113C318.608 380.318 318.877 380.55 319.118 380.792L319.792 381.468L322.491 384.172L327.878 389.568C328.707 390.369 329.809 390.881 330.962 391.01L331.179 391.031L331.396 391.042L331.869 391.052L332.824 391.074L334.733 391.128C337.279 391.215 339.826 391.328 342.372 391.541C339.826 391.755 337.279 391.869 334.733 391.954L332.824 392.008L331.869 392.03C331.708 392.033 331.556 392.038 331.387 392.038L331.128 392.035L330.868 392.02C329.486 391.916 328.137 391.322 327.128 390.359L321.706 384.956L319.002 382.258L318.326 381.584C318.117 381.377 317.903 381.192 317.669 381.023C317.203 380.685 316.68 380.433 316.131 380.266C315.856 380.184 315.573 380.125 315.288 380.09C315.146 380.07 315.002 380.061 314.859 380.054L314.644 380.049H314.405L312.496 380.051L308.676 380.054L301.037 380.061L285.758 380.076L224.644 380.136L144.087 380.154L128.808 380.158L124.989 380.16H123.08H122.602H122.364C122.283 380.16 122.203 380.16 122.137 380.163C121.857 380.167 121.576 380.194 121.3 380.248C120.748 380.352 120.213 380.544 119.725 380.825C119.482 380.964 119.248 381.122 119.03 381.299C118.923 381.39 118.815 381.481 118.717 381.58C118.668 381.624 118.613 381.681 118.554 381.738L118.386 381.906L115.686 384.607L110.287 390.011L107.587 392.712L106.238 394.063L105.562 394.739C105.332 394.966 105.128 395.182 104.853 395.434C104.322 395.908 103.711 396.295 103.055 396.571C102.397 396.842 101.694 397.014 100.983 397.055C100.895 397.064 100.805 397.064 100.716 397.066L100.582 397.069H100.462H99.9852H99.0306H97.1215L89.482 397.072L58.9257 397.075L47.8115 397.049L43.9917 397.048L42.0826 397.046H41.1281H40.6508H40.5315L40.3987 397.043C40.3107 397.04 40.2212 397.04 40.1332 397.033C39.4248 396.991 38.7252 396.821 38.069 396.55C37.4142 396.274 36.8072 395.89 36.2777 395.416C36.0033 395.166 35.7989 394.949 35.5692 394.723L34.8936 394.047L33.5438 392.696L22.7453 381.887L17.3491 376.48L17.1805 376.312C17.1238 376.255 17.0702 376.201 17.006 376.134C16.8822 376.007 16.7659 375.875 16.6525 375.739C16.4288 375.464 16.2289 375.172 16.0529 374.865C15.698 374.252 15.4549 373.578 15.3221 372.883C15.255 372.535 15.2207 372.182 15.2132 371.828L15.2103 371.695V371.576V371.337V370.86L15.2117 368.951L15.2267 353.672L15.2311 349.852V349.375C15.2311 349.22 15.2341 349.047 15.2281 348.913C15.2207 348.629 15.1938 348.344 15.1387 348.066C15.0283 347.509 14.8329 346.966 14.545 346.476C14.4019 346.23 14.2408 345.995 14.0603 345.775L13.9216 345.614L13.7754 345.458C13.674 345.353 13.5532 345.235 13.4443 345.124L12.0945 343.773L9.39639 341.069L4.00014 335.662C3.78387 335.449 3.52137 335.18 3.30957 334.909C3.09032 334.635 2.89494 334.341 2.7264 334.032C2.38932 333.416 2.15068 332.745 2.03434 332.051C1.97617 331.705 1.94336 331.355 1.94336 331.003V330.045L1.94485 328.136L1.97468 297.58L2.01644 267.023L2.03882 263.204C2.04031 261.827 2.51162 260.444 3.37371 259.369C3.47811 259.233 3.59445 259.105 3.7093 258.978L3.88828 258.793L4.05831 258.626L4.73992 257.958L6.10614 256.625L8.84453 253.962C12.5151 250.417 16.1857 246.887 19.9144 243.413Z" fill="#DAB46E"/>
<path opacity="0.6" d="M111.195 378.394L100.995 388.594C100.03 389.559 98.7201 390.102 97.3539 390.102H85.0938L95.2628 379.933C96.2248 378.971 97.5299 378.428 98.8901 378.425L111.195 378.394Z" fill="#DAB46E"/>
<path opacity="0.3" d="M88.9704 378.394L78.77 388.594C77.805 389.559 76.4955 390.102 75.1293 390.102H62.8691L73.0382 379.933C74.0002 378.971 75.3053 378.428 76.6655 378.425L88.9704 378.394Z" fill="#DAB46E"/>
<path opacity="0.1" d="M66.7458 378.394L56.5454 388.594C55.5804 389.559 54.2709 390.102 52.9047 390.102H40.6445L50.8136 379.933C51.7756 378.971 53.0807 378.428 54.4409 378.425L66.7458 378.394Z" fill="#DAB46E"/>
<path d="M5.7429 151.089L6.76607 152.112C7.25677 152.603 7.5327 153.268 7.5327 153.961V225.325C7.5327 226.019 7.25677 226.684 6.76607 227.175L5.59375 228.347L5.7429 151.089Z" fill="#DAB46E"/>
<path d="M8.24805 339.061V351.314C8.24805 352.99 8.91475 354.598 10.099 355.784L15.7592 361.444V347.737L8.24805 339.061Z" fill="#DAB46E"/>
<path d="M11.2598 347.251V351.017C11.2598 351.069 11.2806 351.12 11.3179 351.157L13.0108 352.85C13.1361 352.974 13.3479 352.886 13.3479 352.71V348.944C13.3479 348.892 13.327 348.841 13.2897 348.804L11.5968 347.111C11.4731 346.987 11.2598 347.075 11.2598 347.251Z" fill="black"/>
</svg>
