<svg width="670" height="264" viewBox="0 0 670 264" fill="none" xmlns="http://www.w3.org/2000/svg">
<path d="M1.75384 193.223L1.77443 167.551L1.82036 39.1104L1.82036 38.3089C1.81877 38.1663 1.82352 38.0618 1.82669 37.9478C1.83303 37.8337 1.84095 37.7212 1.85362 37.6072C1.90431 37.1557 2.01202 36.7091 2.17993 36.2861C2.34308 35.8616 2.57118 35.464 2.8373 35.0949C2.97669 34.9159 3.11767 34.7369 3.27924 34.577L3.33785 34.5152L3.40913 34.4439L3.55169 34.3029L3.83523 34.0194L4.13007 33.734L4.44234 33.4218C5.28662 32.5236 5.8838 31.3958 6.15466 30.1935C6.22594 29.8942 6.2703 29.5885 6.3004 29.2812C6.31148 29.1275 6.32574 28.9738 6.32732 28.8202L6.33207 28.5953L6.33207 28.3941L6.33207 26.7895L6.32891 25.6812L6.32732 22.472L6.32732 20.8674L6.32732 20.4666L6.32732 20.2702L6.33207 20.1007C6.34158 19.8742 6.36217 19.6477 6.40177 19.4243C6.55067 18.5278 6.94826 17.6771 7.53118 16.9802C7.80046 16.6602 8.22498 16.2642 8.59247 15.8872L9.72663 14.7515L14.2633 10.2117L18.0264 6.44221L20.2899 4.17072L20.857 3.60365L21.139 3.32169C21.2229 3.24407 21.3005 3.1617 21.3892 3.09042C21.7314 2.78946 22.1147 2.5376 22.5234 2.33801C22.9321 2.13843 23.3693 1.99428 23.8144 1.90716C24.0377 1.86439 24.2642 1.83746 24.4908 1.82321C24.608 1.81687 24.7109 1.81529 24.8392 1.8137L25.24 1.8137L28.4492 1.81212L43.5011 1.80103L52.3643 1.72183L65.2012 1.70123L71.6196 1.69173L74.8289 1.68698L76.4335 1.68381L76.6346 1.68381L76.7344 1.68381L76.8216 1.68539L76.9958 1.68856L77.17 1.70123C77.2873 1.70598 77.4013 1.72816 77.5185 1.73925C77.6326 1.76143 77.7498 1.7741 77.8623 1.80261C78.7762 1.99428 79.6332 2.44414 80.3238 3.07141C80.4838 3.22031 80.685 3.42465 80.8719 3.60998L81.4406 4.17706L82.5763 5.30963L83.938 6.65384L86.2268 8.9269C87.0933 9.75851 88.1879 10.3462 89.3537 10.625C89.6452 10.6963 89.9414 10.7422 90.2392 10.7755C90.3881 10.7881 90.5386 10.8024 90.6874 10.8056L90.9124 10.8103L91.1167 10.8103L92.7213 10.8071L95.9306 10.8008L104.794 10.6915L359.846 10.6376C359.842 10.18 359.842 9.92919 359.842 9.51456L104.791 9.46071L95.9274 9.35142L92.7182 9.34508L91.1135 9.34191L90.9171 9.34033L90.7413 9.33558C90.6241 9.33241 90.5069 9.31974 90.3897 9.31024C90.1568 9.28331 89.9239 9.24529 89.6958 9.18985C88.7834 8.96809 87.9281 8.50397 87.2533 7.85136L84.9992 5.59095L83.655 4.22933L82.5224 3.09359L81.9554 2.52492C81.7637 2.33326 81.591 2.15426 81.3598 1.93884C80.4711 1.12623 79.3687 0.544899 78.1886 0.291456C78.0428 0.255023 77.8924 0.236015 77.745 0.207503C77.5946 0.190079 77.4457 0.164733 77.2952 0.156813L77.0703 0.139389L76.8438 0.133054L76.7313 0.129885L76.6315 0.129885L76.4303 0.129885L74.8257 0.126719L71.6165 0.121965L65.198 0.112461L52.3611 0.0918712L43.498 0.0126705L28.4461 0.00158194L25.2368 -1.10314e-06L24.8361 -1.08562e-06C24.6983 0.00158294 24.5335 0.00316724 24.383 0.0126714C24.0757 0.0316796 23.7716 0.0681108 23.4691 0.125136C22.8656 0.242353 22.2779 0.435604 21.7251 0.704888C21.1722 0.974171 20.6543 1.31473 20.1917 1.71866C20.0729 1.81687 19.9652 1.92617 19.8527 2.0323L19.5676 2.31742L19.0005 2.8845L16.7306 5.15282L12.9612 8.91592L8.42139 13.4526L7.28566 14.5867L6.71857 15.1538C6.54275 15.3296 6.30673 15.5641 6.11506 15.7985C5.32464 16.7426 4.78607 17.8957 4.58173 19.1107C4.52788 19.4132 4.49778 19.7205 4.48511 20.0278L4.47877 20.2591L4.47719 20.4634L4.47719 20.8642L4.47719 22.4688L4.4756 25.678L4.47243 26.7863L4.47243 28.3909L4.47243 28.5921C4.47243 28.6618 4.46927 28.7093 4.46927 28.7679C4.46927 28.882 4.45818 28.9944 4.45026 29.1069C4.4265 29.3318 4.39482 29.5568 4.34255 29.7785C4.14296 30.664 3.70102 31.4909 3.08167 32.153L2.82167 32.4288L2.53633 32.7237L2.25279 33.0072L2.11182 33.1498L2.04053 33.221L1.96133 33.305C1.74432 33.5236 1.55107 33.7644 1.36574 34.0083C1.00458 34.5057 0.69887 35.0458 0.478691 35.6208C0.25376 36.1927 0.108029 36.7962 0.0415 37.4076C0.0240758 37.5597 0.0145714 37.7133 0.00665136 37.867C0.00348332 38.019 -0.00126766 38.1822 0.000316362 38.3073L0.000316397 39.1088L0.0478488 167.551L0.070026 193.223C0.815635 193.223 0.975963 193.223 1.75384 193.223Z" fill="#EFCD8F"/>
<path d="M359.292 41.9494C359.292 54.6935 359.292 28.836 359.292 28.836L359.292 15.7227L89.5349 15.7165L87.9294 15.7134L87.7344 15.7113L87.556 15.7072C87.4388 15.704 87.3206 15.6907 87.2034 15.6812C86.9705 15.6543 86.7387 15.6164 86.5106 15.5609C85.5982 15.3392 84.7419 14.8756 84.0671 14.223L81.8144 11.9626L80.4703 10.6008L79.3377 9.46512L78.7694 8.89677C78.5777 8.70511 78.4074 8.52621 78.1761 8.31079C77.2875 7.49818 76.1825 6.91621 75.0025 6.66277C74.8567 6.62634 74.7059 6.60831 74.5586 6.5798C74.4081 6.56238 74.261 6.5369 74.1105 6.52898L73.8865 6.51135L73.6583 6.50513L73.5463 6.50201L73.4467 6.50201L73.2476 6.50201L71.6421 6.4989L68.4311 6.49372L62.0133 6.48438L57.6739 6.46364L48.8084 6.38482L33.7575 6.37341L28.4266 6.37134L28.0242 6.37134C27.8863 6.37292 27.7224 6.37532 27.572 6.38482C27.2647 6.40383 26.9577 6.43981 26.6551 6.49683C26.0516 6.61405 25.4656 6.80731 24.9127 7.07659C24.3599 7.34588 23.8403 7.68699 23.3778 8.09092C23.259 8.18913 23.1542 8.298 23.0417 8.40413L22.7555 8.68935L22.1871 9.25666L19.9179 11.5249L16.1468 15.2871L13.7324 17.6995L12.5957 18.8341L12.0315 19.4015C11.8556 19.5773 11.6174 19.8111 11.4258 20.0455C10.6353 20.9896 10.0993 22.1432 9.89495 23.3581C9.84109 23.6607 9.80805 23.9677 9.79538 24.275L9.79123 24.5063L9.78708 24.7106L9.78708 25.1109L9.78708 26.7164L9.78708 32.0494L9.78294 33.1581L9.78294 34.7625L9.78294 34.9637C9.78294 35.0334 9.78294 35.0804 9.78294 35.139C9.78294 35.2531 9.77011 35.3657 9.76219 35.4782C9.73843 35.7031 9.7066 35.9285 9.65433 36.1502C9.45474 37.0357 9.01252 37.8621 8.39317 38.5242L8.13181 38.8001L7.84971 39.0947L7.56346 39.3788L7.4224 39.5209L7.35188 39.5925L7.27306 39.6765C7.05605 39.8951 6.86099 40.1357 6.67566 40.3797C6.31451 40.8771 6.0122 41.4174 5.79202 41.9924C5.56709 42.5643 5.4188 43.167 5.35227 43.7784C5.33485 43.9305 5.327 44.0842 5.31908 44.2378C5.31592 44.3899 5.3092 44.5535 5.31079 44.6786L5.31079 45.4803L5.3108 193.387C27.775 193.387 302.129 192.856 359.292 192.856C359.292 58.5092 359.292 29.2052 359.292 41.9494Z" fill="#242B35"/>
<path d="M668.092 193.223L668.071 167.551L668.025 39.1104L668.025 38.3089C668.027 38.1663 668.022 38.0618 668.019 37.9478C668.013 37.8337 668.005 37.7212 667.992 37.6072C667.941 37.1557 667.834 36.7091 667.666 36.2861C667.503 35.8616 667.275 35.464 667.008 35.0949C666.869 34.9159 666.728 34.7369 666.566 34.577L666.508 34.5152L666.437 34.4439L666.294 34.3029L666.01 34.0194L665.716 33.734L665.403 33.4218C664.559 32.5236 663.962 31.3958 663.691 30.1935C663.62 29.8942 663.575 29.5885 663.545 29.2812C663.534 29.1275 663.52 28.9738 663.518 28.8202L663.514 28.5953L663.514 28.3941L663.514 26.7895L663.517 25.6812L663.518 22.472L663.518 20.8674L663.518 20.4666L663.518 20.2702L663.514 20.1007C663.504 19.8742 663.484 19.6477 663.444 19.4243C663.295 18.5278 662.897 17.6771 662.315 16.9802C662.045 16.6602 661.621 16.2642 661.253 15.8872L660.119 14.7515L655.582 10.2117L651.819 6.44221L649.556 4.17072L648.989 3.60365L648.707 3.32169C648.623 3.24407 648.545 3.1617 648.456 3.09042C648.114 2.78946 647.731 2.5376 647.322 2.33801C646.914 2.13843 646.476 1.99428 646.031 1.90716C645.808 1.86439 645.581 1.83746 645.355 1.82321C645.238 1.81687 645.135 1.81529 645.006 1.8137L644.606 1.8137L641.396 1.81212L626.345 1.80103L617.481 1.72183L604.645 1.70123L598.226 1.69173L595.017 1.68698L593.412 1.68381L593.211 1.68381L593.111 1.68381L593.024 1.68539L592.85 1.68856L592.676 1.70123C592.558 1.70598 592.444 1.72816 592.327 1.73925C592.213 1.76143 592.096 1.7741 591.983 1.80261C591.069 1.99428 590.213 2.44414 589.522 3.07141C589.362 3.22031 589.161 3.42465 588.974 3.60998L588.405 4.17706L587.269 5.30963L585.908 6.65384L583.619 8.9269C582.752 9.75851 581.658 10.3462 580.492 10.625C580.201 10.6963 579.904 10.7422 579.607 10.7755C579.458 10.7881 579.307 10.8024 579.158 10.8056L578.933 10.8103L578.729 10.8103L577.124 10.8071L573.915 10.8008L565.052 10.6915L310 10.6376C310.003 10.18 310.003 9.92919 310.003 9.51456L565.055 9.46071L573.918 9.35142L577.128 9.34508L578.732 9.34191L578.929 9.34033L579.104 9.33558C579.222 9.33241 579.339 9.31974 579.456 9.31024C579.689 9.28331 579.922 9.24529 580.15 9.18985C581.062 8.96809 581.918 8.50397 582.592 7.85136L584.846 5.59095L586.191 4.22933L587.323 3.09359L587.89 2.52492C588.082 2.33326 588.255 2.15426 588.486 1.93884C589.375 1.12623 590.477 0.544899 591.657 0.291456C591.803 0.255023 591.953 0.236015 592.101 0.207503C592.251 0.190079 592.4 0.164733 592.551 0.156813L592.775 0.139389L593.002 0.133054L593.114 0.129885L593.214 0.129885L593.415 0.129885L595.02 0.126719L598.229 0.121965L604.648 0.112461L617.485 0.0918712L626.348 0.0126705L641.4 0.00158194L644.609 -1.10314e-06L645.01 -1.08562e-06C645.147 0.00158294 645.312 0.00316724 645.463 0.0126714C645.77 0.0316796 646.074 0.0681108 646.377 0.125136C646.98 0.242353 647.568 0.435604 648.121 0.704888C648.673 0.974171 649.191 1.31473 649.654 1.71866C649.773 1.81687 649.88 1.92617 649.993 2.0323L650.278 2.31742L650.845 2.8845L653.115 5.15282L656.885 8.91592L661.424 13.4526L662.56 14.5867L663.127 15.1538C663.303 15.3296 663.539 15.5641 663.731 15.7985C664.521 16.7426 665.06 17.8957 665.264 19.1107C665.318 19.4132 665.348 19.7205 665.361 20.0278L665.367 20.2591L665.369 20.4634L665.369 20.8642L665.369 22.4688L665.37 25.678L665.373 26.7863L665.373 28.3909L665.373 28.5921C665.373 28.6618 665.376 28.7093 665.376 28.7679C665.376 28.882 665.388 28.9944 665.395 29.1069C665.419 29.3318 665.451 29.5568 665.503 29.7785C665.703 30.664 666.145 31.4909 666.764 32.153L667.024 32.4288L667.309 32.7237L667.593 33.0072L667.734 33.1498L667.805 33.221L667.884 33.305C668.101 33.5236 668.295 33.7644 668.48 34.0083C668.841 34.5057 669.147 35.0458 669.367 35.6208C669.592 36.1927 669.738 36.7962 669.804 37.4076C669.822 37.5597 669.831 37.7133 669.839 37.867C669.842 38.019 669.847 38.1822 669.845 38.3073L669.845 39.1088L669.798 167.551L669.776 193.223C669.03 193.223 668.87 193.223 668.092 193.223Z" fill="#EFCD8F"/>
<path d="M310.553 41.9494C310.553 54.6935 310.553 28.836 310.553 28.836L310.553 15.7227L580.311 15.7165L581.916 15.7134L582.111 15.7113L582.29 15.7072C582.407 15.704 582.525 15.6907 582.642 15.6812C582.875 15.6543 583.107 15.6164 583.335 15.5609C584.248 15.3392 585.104 14.8756 585.779 14.223L588.031 11.9626L589.375 10.6008L590.508 9.46512L591.076 8.89677C591.268 8.70511 591.438 8.52621 591.67 8.31079C592.558 7.49818 593.663 6.91621 594.843 6.66277C594.989 6.62634 595.14 6.60831 595.287 6.5798C595.438 6.56238 595.585 6.5369 595.735 6.52898L595.959 6.51135L596.187 6.50513L596.299 6.50201L596.399 6.50201L596.598 6.50201L598.204 6.4989L601.415 6.49372L607.832 6.48438L612.172 6.46364L621.037 6.38482L636.088 6.37341L641.419 6.37134L641.822 6.37134C641.959 6.37292 642.123 6.37532 642.274 6.38482C642.581 6.40383 642.888 6.43981 643.191 6.49683C643.794 6.61405 644.38 6.80731 644.933 7.07659C645.486 7.34588 646.005 7.68699 646.468 8.09092C646.587 8.18913 646.692 8.298 646.804 8.40413L647.09 8.68935L647.659 9.25666L649.928 11.5249L653.699 15.2871L656.113 17.6995L657.25 18.8341L657.814 19.4015C657.99 19.5773 658.228 19.8111 658.42 20.0455C659.21 20.9896 659.746 22.1432 659.951 23.3581C660.005 23.6607 660.038 23.9677 660.05 24.275L660.054 24.5063L660.059 24.7106L660.059 25.1109L660.059 26.7164L660.059 32.0494L660.063 33.1581L660.063 34.7625L660.063 34.9637C660.063 35.0334 660.063 35.0804 660.063 35.139C660.063 35.2531 660.076 35.3657 660.084 35.4782C660.107 35.7031 660.139 35.9285 660.191 36.1502C660.391 37.0357 660.833 37.8621 661.453 38.5242L661.714 38.8001L661.996 39.0947L662.282 39.3788L662.423 39.5209L662.494 39.5925L662.573 39.6765C662.79 39.8951 662.985 40.1357 663.17 40.3797C663.531 40.8771 663.834 41.4174 664.054 41.9924C664.279 42.5643 664.427 43.167 664.493 43.7784C664.511 43.9305 664.519 44.0842 664.527 44.2378C664.53 44.3899 664.537 44.5535 664.535 44.6786L664.535 45.4803L664.535 193.387C642.071 193.387 367.716 192.856 310.553 192.856C310.553 58.5092 310.553 29.2052 310.553 41.9494Z" fill="#242B35"/>
<path d="M668.092 70.1641L668.071 95.8363L668.025 224.277L668.025 225.078C668.027 225.221 668.022 225.326 668.019 225.44C668.013 225.554 668.005 225.666 667.992 225.78C667.941 226.232 667.834 226.678 667.666 227.101C667.503 227.526 667.275 227.923 667.008 228.292C666.869 228.471 666.728 228.65 666.566 228.81L666.508 228.872L666.437 228.943L666.294 229.084L666.01 229.368L665.716 229.653L665.403 229.966C664.559 230.864 663.962 231.992 663.691 233.194C663.62 233.493 663.575 233.799 663.545 234.106C663.534 234.26 663.52 234.413 663.518 234.567L663.514 234.792L663.514 234.993L663.514 236.598L663.517 237.706L663.518 240.915L663.518 242.52L663.518 242.921L663.518 243.117L663.514 243.287C663.504 243.513 663.484 243.74 663.444 243.963C663.295 244.86 662.897 245.71 662.315 246.407C662.045 246.727 661.621 247.123 661.253 247.5L660.119 248.636L655.582 253.176L651.819 256.945L649.556 259.217L648.989 259.784L648.707 260.066C648.623 260.143 648.545 260.226 648.456 260.297C648.114 260.598 647.731 260.85 647.322 261.049C646.914 261.249 646.476 261.393 646.031 261.48C645.808 261.523 645.581 261.55 645.355 261.564C645.238 261.57 645.135 261.572 645.006 261.574L644.606 261.574L641.396 261.575L626.345 261.586L617.481 261.665L604.645 261.686L598.226 261.696L595.017 261.7L593.412 261.704L593.211 261.704L593.111 261.704L593.024 261.702L592.85 261.699L592.676 261.686C592.558 261.681 592.444 261.659 592.327 261.648C592.213 261.626 592.096 261.613 591.983 261.585C591.069 261.393 590.213 260.943 589.522 260.316C589.362 260.167 589.161 259.963 588.974 259.777L588.405 259.21L587.269 258.078L585.908 256.733L583.619 254.46C582.752 253.629 581.658 253.041 580.492 252.762C580.201 252.691 579.904 252.645 579.607 252.612C579.458 252.599 579.307 252.585 579.158 252.582L578.933 252.577L578.729 252.577L577.124 252.58L573.915 252.587L565.052 252.696L310 252.75C310.003 253.207 310.003 253.458 310.003 253.873L565.055 253.927L573.918 254.036L577.128 254.042L578.732 254.045L578.929 254.047L579.104 254.052C579.222 254.055 579.339 254.068 579.456 254.077C579.689 254.104 579.922 254.142 580.15 254.197C581.062 254.419 581.918 254.883 582.592 255.536L584.846 257.796L586.191 259.158L587.323 260.294L587.89 260.862C588.082 261.054 588.255 261.233 588.486 261.448C589.375 262.261 590.477 262.842 591.657 263.096C591.803 263.132 591.953 263.151 592.101 263.18C592.251 263.197 592.4 263.223 592.551 263.231L592.775 263.248L593.002 263.254L593.114 263.257L593.214 263.257L593.415 263.257L595.02 263.261L598.229 263.265L604.648 263.275L617.485 263.295L626.348 263.375L641.4 263.386L644.609 263.387L645.01 263.387C645.147 263.386 645.312 263.384 645.463 263.375C645.77 263.356 646.074 263.319 646.377 263.262C646.98 263.145 647.568 262.952 648.121 262.682C648.673 262.413 649.191 262.073 649.654 261.669C649.773 261.57 649.88 261.461 649.993 261.355L650.278 261.07L650.845 260.503L653.115 258.235L656.885 254.471L661.424 249.935L662.56 248.801L663.127 248.234C663.303 248.058 663.539 247.823 663.731 247.589C664.521 246.645 665.06 245.492 665.264 244.277C665.318 243.974 665.348 243.667 665.361 243.36L665.367 243.128L665.369 242.924L665.369 242.523L665.369 240.919L665.37 237.709L665.373 236.601L665.373 234.996L665.373 234.795C665.373 234.726 665.376 234.678 665.376 234.619C665.376 234.505 665.388 234.393 665.395 234.28C665.419 234.055 665.451 233.831 665.503 233.609C665.703 232.723 666.145 231.896 666.764 231.234L667.024 230.959L667.309 230.664L667.593 230.38L667.734 230.238L667.805 230.166L667.884 230.082C668.101 229.864 668.295 229.623 668.48 229.379C668.841 228.882 669.147 228.341 669.367 227.766C669.592 227.195 669.738 226.591 669.804 225.98C669.822 225.828 669.831 225.674 669.839 225.52C669.842 225.368 669.847 225.205 669.845 225.08L669.845 224.278L669.798 95.8363L669.776 70.1641C669.03 70.1641 668.87 70.1641 668.092 70.1641Z" fill="#EFCD8F"/>
<path d="M310.553 221.438C310.553 208.694 310.553 234.551 310.553 234.551L310.553 247.665L580.311 247.671L581.916 247.674L582.111 247.676L582.29 247.68C582.407 247.683 582.525 247.697 582.642 247.706C582.875 247.733 583.107 247.771 583.335 247.826C584.248 248.048 585.104 248.512 585.779 249.164L588.031 251.425L589.375 252.787L590.508 253.922L591.076 254.491C591.268 254.682 591.438 254.861 591.67 255.077C592.558 255.889 593.663 256.471 594.843 256.725C594.989 256.761 595.14 256.779 595.287 256.808C595.438 256.825 595.585 256.85 595.735 256.858L595.959 256.876L596.187 256.882L596.299 256.885L596.399 256.885L596.598 256.885L598.204 256.888L601.415 256.894L607.832 256.903L612.172 256.924L621.037 257.003L636.088 257.014L641.419 257.016L641.822 257.016C641.959 257.014 642.123 257.012 642.274 257.003C642.581 256.983 642.888 256.948 643.191 256.89C643.794 256.773 644.38 256.58 644.933 256.311C645.486 256.041 646.005 255.7 646.468 255.296C646.587 255.198 646.692 255.089 646.804 254.983L647.09 254.698L647.659 254.131L649.928 251.862L653.699 248.1L656.113 245.688L657.25 244.553L657.814 243.986C657.99 243.81 658.228 243.576 658.42 243.342C659.21 242.398 659.746 241.244 659.951 240.029C660.005 239.727 660.038 239.42 660.05 239.112L660.054 238.881L660.059 238.677L660.059 238.276L660.059 236.671L660.059 231.338L660.063 230.229L660.063 228.625L660.063 228.424C660.063 228.354 660.063 228.307 660.063 228.248C660.063 228.134 660.076 228.022 660.084 227.909C660.107 227.684 660.139 227.459 660.191 227.237C660.391 226.352 660.833 225.525 661.453 224.863L661.714 224.587L661.996 224.293L662.282 224.008L662.423 223.866L662.494 223.795L662.573 223.711C662.79 223.492 662.985 223.252 663.17 223.008C663.531 222.51 663.834 221.97 664.054 221.395C664.279 220.823 664.427 220.22 664.493 219.609C664.511 219.457 664.519 219.303 664.527 219.149C664.53 218.997 664.537 218.834 664.535 218.709L664.535 217.907L664.535 70.0001C642.071 70.0001 367.716 70.5311 310.553 70.5311C310.553 204.878 310.553 234.182 310.553 221.438Z" fill="#242B35"/>
<path d="M1.75386 70.1641L1.77444 95.8363L1.82036 224.277L1.82036 225.078C1.81878 225.221 1.82353 225.326 1.82669 225.44C1.83303 225.554 1.84095 225.666 1.85362 225.78C1.90431 226.232 2.01202 226.678 2.17993 227.101C2.34308 227.526 2.57118 227.923 2.8373 228.292C2.97669 228.471 3.11767 228.65 3.27924 228.81L3.33785 228.872L3.40913 228.943L3.55169 229.084L3.83523 229.368L4.13008 229.653L4.44234 229.966C5.28662 230.864 5.8838 231.992 6.15467 233.194C6.22595 233.493 6.2703 233.799 6.3004 234.106C6.31149 234.26 6.32574 234.413 6.32732 234.567L6.33208 234.792L6.33208 234.993L6.33207 236.598L6.32891 237.706L6.32732 240.915L6.32732 242.52L6.32732 242.921L6.32732 243.117L6.33207 243.287C6.34158 243.513 6.36217 243.74 6.40177 243.963C6.55067 244.86 6.94826 245.71 7.53118 246.407C7.80046 246.727 8.22498 247.123 8.59247 247.5L9.72663 248.636L14.2633 253.176L18.0264 256.945L20.2899 259.217L20.857 259.784L21.139 260.066C21.2229 260.143 21.3005 260.226 21.3892 260.297C21.7314 260.598 22.1147 260.85 22.5234 261.049C22.9321 261.249 23.3693 261.393 23.8144 261.48C24.0377 261.523 24.2642 261.55 24.4908 261.564C24.608 261.57 24.7109 261.572 24.8392 261.574L25.24 261.574L28.4492 261.575L43.5011 261.586L52.3643 261.666L65.2012 261.686L71.6196 261.696L74.8289 261.7L76.4335 261.704L76.6346 261.704L76.7344 261.704L76.8216 261.702L76.9958 261.699L77.17 261.686C77.2873 261.681 77.4013 261.659 77.5185 261.648C77.6326 261.626 77.7498 261.613 77.8623 261.585C78.7762 261.393 79.6332 260.943 80.3238 260.316C80.4838 260.167 80.685 259.963 80.8719 259.777L81.4406 259.21L82.5763 258.078L83.938 256.734L86.2268 254.46C87.0933 253.629 88.1879 253.041 89.3537 252.762C89.6452 252.691 89.9414 252.645 90.2392 252.612C90.3881 252.599 90.5386 252.585 90.6874 252.582L90.9124 252.577L91.1167 252.577L92.7213 252.58L95.9306 252.587L104.794 252.696L359.846 252.75C359.842 253.207 359.842 253.458 359.842 253.873L104.791 253.927L95.9274 254.036L92.7182 254.042L91.1135 254.045L90.9171 254.047L90.7413 254.052C90.6241 254.055 90.5069 254.068 90.3897 254.077C90.1568 254.104 89.9239 254.142 89.6958 254.197C88.7834 254.419 87.9281 254.883 87.2533 255.536L84.9992 257.796L83.655 259.158L82.5224 260.294L81.9554 260.862C81.7637 261.054 81.591 261.233 81.3598 261.449C80.4711 262.261 79.3687 262.842 78.1886 263.096C78.0428 263.132 77.8924 263.151 77.745 263.18C77.5946 263.197 77.4457 263.223 77.2952 263.231L77.0703 263.248L76.8438 263.254L76.7313 263.257L76.6315 263.257L76.4303 263.257L74.8257 263.261L71.6165 263.265L65.198 263.275L52.3611 263.295L43.498 263.375L28.4461 263.386L25.2368 263.387L24.8361 263.387C24.6983 263.386 24.5335 263.384 24.383 263.375C24.0757 263.356 23.7716 263.319 23.4691 263.262C22.8656 263.145 22.2779 262.952 21.7251 262.682C21.1722 262.413 20.6543 262.073 20.1917 261.669C20.0729 261.57 19.9652 261.461 19.8527 261.355L19.5676 261.07L19.0005 260.503L16.7306 258.235L12.9612 254.471L8.4214 249.935L7.28566 248.801L6.71858 248.234C6.54275 248.058 6.30673 247.823 6.11506 247.589C5.32464 246.645 4.78607 245.492 4.58173 244.277C4.52788 243.974 4.49778 243.667 4.48511 243.36L4.47877 243.128L4.47719 242.924L4.47719 242.523L4.47719 240.919L4.47561 237.709L4.47244 236.601L4.47244 234.996L4.47244 234.795C4.47244 234.726 4.46927 234.678 4.46927 234.619C4.46927 234.505 4.45818 234.393 4.45026 234.28C4.4265 234.055 4.39482 233.831 4.34255 233.609C4.14296 232.723 3.70102 231.896 3.08167 231.234L2.82168 230.959L2.53633 230.664L2.2528 230.38L2.11182 230.238L2.04054 230.166L1.96134 230.082C1.74433 229.864 1.55107 229.623 1.36574 229.379C1.00459 228.882 0.698873 228.341 0.478694 227.766C0.253763 227.195 0.108032 226.591 0.0415032 225.98C0.024079 225.828 0.0145747 225.674 0.00665467 225.52C0.00348665 225.368 -0.00126433 225.205 0.000319711 225.08L0.000319816 224.278L0.0478634 95.8363L0.0700429 70.1641C0.815651 70.1641 0.97598 70.1641 1.75386 70.1641Z" fill="#EFCD8F"/>
<path d="M359.292 221.438C359.292 208.694 359.292 234.551 359.292 234.551L359.292 247.665L89.5349 247.671L87.9294 247.674L87.7344 247.676L87.556 247.68C87.4388 247.683 87.3206 247.697 87.2034 247.706C86.9705 247.733 86.7387 247.771 86.5106 247.826C85.5982 248.048 84.7419 248.512 84.0671 249.164L81.8144 251.425L80.4703 252.787L79.3377 253.922L78.7694 254.491C78.5777 254.682 78.4074 254.861 78.1761 255.077C77.2875 255.889 76.1825 256.471 75.0025 256.725C74.8567 256.761 74.7059 256.779 74.5586 256.808C74.4081 256.825 74.261 256.85 74.1105 256.858L73.8865 256.876L73.6583 256.882L73.5463 256.885L73.4467 256.885L73.2476 256.885L71.6421 256.888L68.4311 256.894L62.0133 256.903L57.6739 256.924L48.8084 257.003L33.7575 257.014L28.4266 257.016L28.0242 257.016C27.8863 257.014 27.7224 257.012 27.572 257.003C27.2647 256.984 26.9577 256.948 26.6551 256.891C26.0516 256.773 25.4656 256.58 24.9127 256.311C24.3599 256.041 23.8403 255.7 23.3778 255.296C23.259 255.198 23.1542 255.089 23.0417 254.983L22.7555 254.698L22.1871 254.131L19.9179 251.862L16.1468 248.1L13.7324 245.688L12.5957 244.553L12.0315 243.986C11.8556 243.81 11.6174 243.576 11.4258 243.342C10.6353 242.398 10.0993 241.244 9.89495 240.029C9.84109 239.727 9.80805 239.42 9.79538 239.112L9.79123 238.881L9.78709 238.677L9.78709 238.276L9.78709 236.671L9.78709 231.338L9.78294 230.229L9.78294 228.625L9.78294 228.424C9.78294 228.354 9.78294 228.307 9.78294 228.248C9.78294 228.134 9.77012 228.022 9.7622 227.909C9.73843 227.684 9.70661 227.459 9.65433 227.237C9.45475 226.352 9.01252 225.525 8.39317 224.863L8.13181 224.587L7.84971 224.293L7.56346 224.008L7.42241 223.866L7.35188 223.795L7.27306 223.711C7.05605 223.492 6.861 223.252 6.67567 223.008C6.31451 222.51 6.0122 221.97 5.79202 221.395C5.56709 220.823 5.4188 220.22 5.35228 219.609C5.33485 219.457 5.32701 219.303 5.31909 219.149C5.31592 218.997 5.30921 218.834 5.31079 218.709L5.31079 217.907L5.31082 70.0001C27.775 70.0001 302.129 70.5311 359.293 70.5311C359.292 204.878 359.292 234.182 359.292 221.438Z" fill="#242B35"/>
</svg>
