<svg width="670" height="194" viewBox="0 0 670 194" fill="none" xmlns="http://www.w3.org/2000/svg">
<path d="M1.75384 193.223L1.77443 167.551L1.82036 39.1104L1.82036 38.3089C1.81877 38.1663 1.82352 38.0618 1.82669 37.9478C1.83303 37.8337 1.84095 37.7212 1.85362 37.6072C1.90431 37.1557 2.01202 36.7091 2.17993 36.2861C2.34308 35.8616 2.57118 35.464 2.8373 35.0949C2.97669 34.9159 3.11767 34.7369 3.27924 34.577L3.33785 34.5152L3.40913 34.4439L3.55169 34.3029L3.83523 34.0194L4.13007 33.734L4.44234 33.4218C5.28662 32.5236 5.8838 31.3958 6.15466 30.1935C6.22594 29.8942 6.2703 29.5885 6.3004 29.2812C6.31148 29.1275 6.32574 28.9738 6.32732 28.8202L6.33207 28.5953L6.33207 28.3941L6.33207 26.7895L6.32891 25.6812L6.32732 22.472L6.32732 20.8674L6.32732 20.4666L6.32732 20.2702L6.33207 20.1007C6.34158 19.8742 6.36217 19.6477 6.40177 19.4243C6.55067 18.5278 6.94826 17.6771 7.53118 16.9802C7.80046 16.6602 8.22498 16.2642 8.59247 15.8872L9.72663 14.7515L14.2633 10.2117L18.0264 6.44221L20.2899 4.17072L20.857 3.60365L21.139 3.32169C21.2229 3.24407 21.3005 3.1617 21.3892 3.09042C21.7314 2.78946 22.1147 2.5376 22.5234 2.33801C22.9321 2.13843 23.3693 1.99428 23.8144 1.90716C24.0377 1.86439 24.2642 1.83746 24.4908 1.82321C24.608 1.81687 24.7109 1.81529 24.8392 1.8137L25.24 1.8137L28.4492 1.81212L43.5011 1.80103L52.3643 1.72183L65.2012 1.70123L71.6196 1.69173L74.8289 1.68698L76.4335 1.68381L76.6346 1.68381L76.7344 1.68381L76.8216 1.68539L76.9958 1.68856L77.17 1.70123C77.2873 1.70598 77.4013 1.72816 77.5185 1.73925C77.6326 1.76143 77.7498 1.7741 77.8623 1.80261C78.7762 1.99428 79.6332 2.44414 80.3238 3.07141C80.4838 3.22031 80.685 3.42465 80.8719 3.60998L81.4406 4.17706L82.5763 5.30963L83.938 6.65384L86.2268 8.9269C87.0933 9.75851 88.1879 10.3462 89.3537 10.625C89.6452 10.6963 89.9414 10.7422 90.2392 10.7755C90.3881 10.7881 90.5385 10.8024 90.6874 10.8056L90.9124 10.8103L91.1167 10.8103L92.7213 10.8071L95.9306 10.8008L104.794 10.6915L359.846 10.6376C359.842 10.18 359.842 9.92919 359.842 9.51456L104.791 9.46071L95.9274 9.35142L92.7182 9.34508L91.1135 9.34191L90.9171 9.34033L90.7413 9.33558C90.6241 9.33241 90.5069 9.31974 90.3897 9.31024C90.1568 9.28331 89.9239 9.24529 89.6958 9.18985C88.7835 8.96809 87.9281 8.50397 87.2533 7.85136L84.9992 5.59095L83.655 4.22933L82.5224 3.09359L81.9554 2.52492C81.7637 2.33326 81.591 2.15426 81.3598 1.93884C80.4711 1.12623 79.3687 0.544899 78.1886 0.291456C78.0428 0.255023 77.8924 0.236015 77.745 0.207503C77.5946 0.190079 77.4457 0.164733 77.2952 0.156813L77.0703 0.139389L76.8438 0.133054L76.7313 0.129885L76.6315 0.129885L76.4303 0.129885L74.8257 0.126719L71.6165 0.121965L65.198 0.112461L52.3611 0.0918712L43.498 0.0126705L28.4461 0.00158194L25.2368 -1.10314e-06L24.8361 -1.08562e-06C24.6983 0.00158294 24.5335 0.00316724 24.383 0.0126714C24.0757 0.0316796 23.7716 0.0681108 23.4691 0.125136C22.8656 0.242353 22.2779 0.435604 21.7251 0.704888C21.1722 0.974171 20.6543 1.31473 20.1917 1.71866C20.0729 1.81687 19.9652 1.92617 19.8527 2.0323L19.5676 2.31742L19.0005 2.8845L16.7306 5.15282L12.9612 8.91592L8.42139 13.4526L7.28566 14.5867L6.71857 15.1538C6.54275 15.3296 6.30673 15.5641 6.11506 15.7985C5.32464 16.7426 4.78607 17.8957 4.58173 19.1107C4.52788 19.4132 4.49778 19.7205 4.48511 20.0278L4.47877 20.2591L4.47719 20.4634L4.47719 20.8642L4.47719 22.4688L4.4756 25.678L4.47243 26.7863L4.47243 28.3909L4.47243 28.5921C4.47243 28.6618 4.46927 28.7093 4.46927 28.7679C4.46927 28.882 4.45818 28.9944 4.45026 29.1069C4.4265 29.3318 4.39482 29.5568 4.34255 29.7785C4.14296 30.664 3.70102 31.4909 3.08167 32.153L2.82167 32.4288L2.53633 32.7237L2.25279 33.0072L2.11182 33.1498L2.04053 33.221L1.96133 33.305C1.74432 33.5236 1.55107 33.7644 1.36574 34.0083C1.00458 34.5057 0.69887 35.0458 0.478691 35.6208C0.25376 36.1927 0.108029 36.7962 0.0415 37.4076C0.0240758 37.5597 0.0145714 37.7133 0.00665136 37.867C0.00348332 38.019 -0.00126766 38.1822 0.000316362 38.3073L0.000316397 39.1088L0.0478488 167.551L0.070026 193.223C0.815635 193.223 0.975963 193.223 1.75384 193.223Z" fill="#EFCD8F"/>
<path d="M359.292 41.9494C359.292 54.6935 359.292 28.836 359.292 28.836L359.292 15.7227L89.5349 15.7165L87.9294 15.7134L87.7344 15.7113L87.556 15.7072C87.4388 15.704 87.3206 15.6907 87.2034 15.6812C86.9705 15.6543 86.7387 15.6164 86.5106 15.5609C85.5982 15.3392 84.7419 14.8756 84.0671 14.223L81.8144 11.9626L80.4703 10.6008L79.3377 9.46512L78.7694 8.89677C78.5777 8.70511 78.4074 8.52621 78.1761 8.31079C77.2875 7.49818 76.1826 6.91621 75.0025 6.66277C74.8567 6.62634 74.7059 6.60831 74.5586 6.5798C74.4081 6.56238 74.261 6.5369 74.1105 6.52898L73.8865 6.51135L73.6583 6.50513L73.5463 6.50201L73.4467 6.50201L73.2476 6.50201L71.6421 6.4989L68.4311 6.49372L62.0133 6.48438L57.6739 6.46364L48.8084 6.38482L33.7575 6.37341L28.4266 6.37134L28.0242 6.37134C27.8863 6.37292 27.7224 6.37532 27.572 6.38482C27.2647 6.40383 26.9577 6.43981 26.6551 6.49683C26.0516 6.61405 25.4656 6.80731 24.9127 7.07659C24.3599 7.34588 23.8403 7.68699 23.3778 8.09092C23.259 8.18913 23.1542 8.298 23.0417 8.40413L22.7555 8.68935L22.1871 9.25666L19.9179 11.5249L16.1468 15.2871L13.7324 17.6995L12.5957 18.8341L12.0315 19.4015C11.8556 19.5773 11.6174 19.8111 11.4258 20.0455C10.6353 20.9896 10.0993 22.1432 9.89495 23.3581C9.84109 23.6607 9.80805 23.9677 9.79538 24.275L9.79123 24.5063L9.78708 24.7106L9.78708 25.1109L9.78708 26.7164L9.78708 32.0494L9.78294 33.1581L9.78294 34.7625L9.78294 34.9637C9.78294 35.0334 9.78294 35.0804 9.78294 35.139C9.78294 35.2531 9.77011 35.3657 9.76219 35.4782C9.73843 35.7031 9.7066 35.9285 9.65433 36.1502C9.45474 37.0357 9.01252 37.8621 8.39317 38.5242L8.13181 38.8001L7.84971 39.0947L7.56346 39.3788L7.4224 39.5209L7.35188 39.5925L7.27306 39.6765C7.05605 39.8951 6.86099 40.1357 6.67566 40.3797C6.31451 40.8771 6.0122 41.4174 5.79202 41.9924C5.56709 42.5643 5.4188 43.167 5.35227 43.7784C5.33485 43.9305 5.327 44.0842 5.31908 44.2378C5.31592 44.3899 5.3092 44.5535 5.31079 44.6786L5.31079 45.4803L5.3108 193.387C27.775 193.387 302.129 192.856 359.292 192.856C359.292 58.5092 359.292 29.2052 359.292 41.9494Z" fill="#242B35"/>
<path d="M668.092 193.223L668.071 167.551L668.025 39.1104L668.025 38.3089C668.027 38.1663 668.022 38.0618 668.019 37.9478C668.013 37.8337 668.005 37.7212 667.992 37.6072C667.941 37.1557 667.834 36.7091 667.666 36.2861C667.503 35.8616 667.275 35.464 667.008 35.0949C666.869 34.9159 666.728 34.7369 666.566 34.577L666.508 34.5152L666.437 34.4439L666.294 34.3029L666.01 34.0194L665.716 33.734L665.403 33.4218C664.559 32.5236 663.962 31.3958 663.691 30.1935C663.62 29.8942 663.575 29.5885 663.545 29.2812C663.534 29.1275 663.52 28.9738 663.518 28.8202L663.514 28.5953L663.514 28.3941L663.514 26.7895L663.517 25.6812L663.518 22.472L663.518 20.8674L663.518 20.4666L663.518 20.2702L663.514 20.1007C663.504 19.8742 663.484 19.6477 663.444 19.4243C663.295 18.5278 662.897 17.6771 662.315 16.9802C662.045 16.6602 661.621 16.2642 661.253 15.8872L660.119 14.7515L655.582 10.2117L651.819 6.44221L649.556 4.17072L648.989 3.60365L648.707 3.32169C648.623 3.24407 648.545 3.1617 648.456 3.09042C648.114 2.78946 647.731 2.5376 647.322 2.33801C646.914 2.13843 646.476 1.99428 646.031 1.90716C645.808 1.86439 645.581 1.83746 645.355 1.82321C645.238 1.81687 645.135 1.81529 645.006 1.8137L644.606 1.8137L641.396 1.81212L626.345 1.80103L617.481 1.72183L604.645 1.70123L598.226 1.69173L595.017 1.68698L593.412 1.68381L593.211 1.68381L593.111 1.68381L593.024 1.68539L592.85 1.68856L592.676 1.70123C592.558 1.70598 592.444 1.72816 592.327 1.73925C592.213 1.76143 592.096 1.7741 591.983 1.80261C591.069 1.99428 590.213 2.44414 589.522 3.07141C589.362 3.22031 589.161 3.42465 588.974 3.60998L588.405 4.17706L587.269 5.30963L585.908 6.65384L583.619 8.9269C582.752 9.75851 581.658 10.3462 580.492 10.625C580.201 10.6963 579.904 10.7422 579.607 10.7755C579.458 10.7881 579.307 10.8024 579.158 10.8056L578.933 10.8103L578.729 10.8103L577.124 10.8071L573.915 10.8008L565.052 10.6915L310 10.6376C310.003 10.18 310.003 9.92919 310.003 9.51456L565.055 9.46071L573.918 9.35142L577.128 9.34508L578.732 9.34191L578.929 9.34033L579.104 9.33558C579.222 9.33241 579.339 9.31974 579.456 9.31024C579.689 9.28331 579.922 9.24529 580.15 9.18985C581.062 8.96809 581.918 8.50397 582.592 7.85136L584.846 5.59095L586.191 4.22933L587.323 3.09359L587.89 2.52492C588.082 2.33326 588.255 2.15426 588.486 1.93884C589.375 1.12623 590.477 0.544899 591.657 0.291456C591.803 0.255023 591.953 0.236015 592.101 0.207503C592.251 0.190079 592.4 0.164733 592.551 0.156813L592.775 0.139389L593.002 0.133054L593.114 0.129885L593.214 0.129885L593.415 0.129885L595.02 0.126719L598.229 0.121965L604.648 0.112461L617.485 0.0918712L626.348 0.0126705L641.4 0.00158194L644.609 -1.10314e-06L645.01 -1.08562e-06C645.147 0.00158294 645.312 0.00316724 645.463 0.0126714C645.77 0.0316796 646.074 0.0681108 646.377 0.125136C646.98 0.242353 647.568 0.435604 648.121 0.704888C648.673 0.974171 649.191 1.31473 649.654 1.71866C649.773 1.81687 649.88 1.92617 649.993 2.0323L650.278 2.31742L650.845 2.8845L653.115 5.15282L656.885 8.91592L661.424 13.4526L662.56 14.5867L663.127 15.1538C663.303 15.3296 663.539 15.5641 663.731 15.7985C664.521 16.7426 665.06 17.8957 665.264 19.1107C665.318 19.4132 665.348 19.7205 665.361 20.0278L665.367 20.2591L665.369 20.4634L665.369 20.8642L665.369 22.4688L665.37 25.678L665.373 26.7863L665.373 28.3909L665.373 28.5921C665.373 28.6618 665.376 28.7093 665.376 28.7679C665.376 28.882 665.388 28.9944 665.395 29.1069C665.419 29.3318 665.451 29.5568 665.503 29.7785C665.703 30.664 666.145 31.4909 666.764 32.153L667.024 32.4288L667.309 32.7237L667.593 33.0072L667.734 33.1498L667.805 33.221L667.884 33.305C668.101 33.5236 668.295 33.7644 668.48 34.0083C668.841 34.5057 669.147 35.0458 669.367 35.6208C669.592 36.1927 669.738 36.7962 669.804 37.4076C669.822 37.5597 669.831 37.7133 669.839 37.867C669.842 38.019 669.847 38.1822 669.845 38.3073L669.845 39.1088L669.798 167.551L669.776 193.223C669.03 193.223 668.87 193.223 668.092 193.223Z" fill="#EFCD8F"/>
<path d="M310.553 41.9494C310.553 54.6935 310.553 28.836 310.553 28.836L310.553 15.7227L580.311 15.7165L581.916 15.7134L582.111 15.7113L582.29 15.7072C582.407 15.704 582.525 15.6907 582.642 15.6812C582.875 15.6543 583.107 15.6164 583.335 15.5609C584.248 15.3392 585.104 14.8756 585.779 14.223L588.031 11.9626L589.375 10.6008L590.508 9.46512L591.076 8.89677C591.268 8.70511 591.438 8.52621 591.67 8.31079C592.558 7.49818 593.663 6.91621 594.843 6.66277C594.989 6.62634 595.14 6.60831 595.287 6.5798C595.438 6.56238 595.585 6.5369 595.735 6.52898L595.959 6.51135L596.187 6.50513L596.299 6.50201L596.399 6.50201L596.598 6.50201L598.204 6.4989L601.415 6.49372L607.832 6.48438L612.172 6.46364L621.037 6.38482L636.088 6.37341L641.419 6.37134L641.822 6.37134C641.959 6.37292 642.123 6.37532 642.274 6.38482C642.581 6.40383 642.888 6.43981 643.191 6.49683C643.794 6.61405 644.38 6.80731 644.933 7.07659C645.486 7.34588 646.005 7.68699 646.468 8.09092C646.587 8.18913 646.692 8.298 646.804 8.40413L647.09 8.68935L647.659 9.25666L649.928 11.5249L653.699 15.2871L656.113 17.6995L657.25 18.8341L657.814 19.4015C657.99 19.5773 658.228 19.8111 658.42 20.0455C659.21 20.9896 659.746 22.1432 659.951 23.3581C660.005 23.6607 660.038 23.9677 660.05 24.275L660.054 24.5063L660.059 24.7106L660.059 25.1109L660.059 26.7164L660.059 32.0494L660.063 33.1581L660.063 34.7625L660.063 34.9637C660.063 35.0334 660.063 35.0804 660.063 35.139C660.063 35.2531 660.076 35.3657 660.084 35.4782C660.107 35.7031 660.139 35.9285 660.191 36.1502C660.391 37.0357 660.833 37.8621 661.453 38.5242L661.714 38.8001L661.996 39.0947L662.282 39.3788L662.423 39.5209L662.494 39.5925L662.573 39.6765C662.79 39.8951 662.985 40.1357 663.17 40.3797C663.531 40.8771 663.834 41.4174 664.054 41.9924C664.279 42.5643 664.427 43.167 664.493 43.7784C664.511 43.9305 664.519 44.0842 664.527 44.2378C664.53 44.3899 664.537 44.5535 664.535 44.6786L664.535 45.4803L664.535 193.387C642.071 193.387 367.716 192.856 310.553 192.856C310.553 58.5092 310.553 29.2052 310.553 41.9494Z" fill="#242B35"/>
</svg>
