<svg width="326" height="238" viewBox="0 0 326 238" fill="none" xmlns="http://www.w3.org/2000/svg">
<path d="M1.7849 237.354L1.80585 211.227L1.85259 39.8031L1.85259 38.9873C1.85098 38.8423 1.85582 38.7359 1.85904 38.6198C1.86549 38.5037 1.87355 38.3893 1.88645 38.2732C1.93803 37.8138 2.04765 37.3592 2.21853 36.9287C2.38458 36.4967 2.61672 36.0921 2.88754 35.7165C3.02941 35.5343 3.17288 35.3521 3.33731 35.1893L3.39696 35.1264L3.4695 35.0539L3.61459 34.9104L3.90315 34.6219L4.20321 34.3315L4.52101 34.0137C5.38025 33.0996 5.988 31.9518 6.26366 30.7283C6.3362 30.4236 6.38134 30.1125 6.41197 29.7997C6.42326 29.6433 6.43776 29.487 6.43937 29.3306L6.44421 29.1017L6.44421 28.8969L6.44421 27.2639L6.44099 26.136L6.43937 22.8699L6.43937 21.2369L6.43937 20.8291L6.43937 20.6292L6.44421 20.4567C6.45388 20.2261 6.47484 19.9956 6.51514 19.7683C6.66668 18.8559 7.07131 17.9902 7.66455 17.2809C7.9386 16.9552 8.37064 16.5522 8.74464 16.1686L9.89888 15.0127L14.5159 10.3925L18.3456 6.5563L20.6493 4.24459L21.2264 3.66746L21.5133 3.38052C21.5988 3.30152 21.6778 3.21769 21.768 3.14515C22.1163 2.83886 22.5064 2.58254 22.9223 2.37942C23.3382 2.1763 23.7831 2.0296 24.2361 1.94093C24.4634 1.89741 24.694 1.87 24.9245 1.85549C25.0438 1.84905 25.1486 1.84743 25.2791 1.84582L25.687 1.84582L28.9531 1.84421L44.2715 1.83292L53.2916 1.75232L66.3559 1.73136L72.888 1.72169L76.1541 1.71685L77.7871 1.71363L77.9918 1.71363L78.0934 1.71363L78.182 1.71524L78.3594 1.71846L78.5367 1.73136C78.656 1.7362 78.7721 1.75877 78.8914 1.77005C79.0074 1.79262 79.1267 1.80552 79.2412 1.83453C80.1713 2.02959 81.0435 2.48742 81.7463 3.1258C81.9091 3.27734 82.1139 3.4853 82.3041 3.67391L82.8828 4.25103L84.0387 5.40366L85.4245 6.77167L87.7539 9.08499C88.6357 9.93133 89.7496 10.5294 90.9361 10.8131C91.2327 10.8857 91.5342 10.9324 91.8373 10.9663C91.9888 10.9792 92.142 10.9937 92.2935 10.9969L92.5224 11.0017L92.7303 11.0017L94.3634 10.9985L97.6294 10.9921L106.65 10.8808L325.51 10.826C325.507 10.3603 325.507 10.105 325.507 9.68307L106.646 9.62826L97.6262 9.51703L94.3602 9.51058L92.7271 9.50735L92.5272 9.50575L92.3483 9.50091C92.229 9.49769 92.1097 9.48479 91.9904 9.47512C91.7534 9.44771 91.5165 9.40902 91.2843 9.3526C90.3558 9.12691 89.4852 8.65457 88.7985 7.9904L86.5045 5.68997L85.1365 4.30423L83.9839 3.14837L83.4068 2.56964C83.2117 2.37458 83.036 2.19241 82.8006 1.97317C81.8963 1.14618 80.7743 0.554549 79.5733 0.296617C79.425 0.25954 79.2718 0.240195 79.1219 0.211178C78.9687 0.193445 78.8172 0.167651 78.664 0.15959L78.4351 0.141857L78.2046 0.13541L78.0902 0.132185L77.9886 0.132185L77.7839 0.132185L76.1508 0.128963L72.8848 0.124125L66.3527 0.114453L53.2884 0.0934982L44.2683 0.0128949L28.9498 0.00160996L25.6838 -1.12267e-06L25.2759 -1.10485e-06C25.1357 0.00161097 24.968 0.00322333 24.8149 0.0128958C24.5021 0.0322407 24.1926 0.069317 23.8847 0.127352C23.2705 0.246645 22.6724 0.443318 22.1098 0.717371C21.5472 0.991423 21.02 1.33802 20.5493 1.7491C20.4284 1.84904 20.3188 1.96028 20.2043 2.06829L19.9142 2.35846L19.337 2.93558L17.0269 5.24407L13.1907 9.07382L8.57053 13.6908L7.41468 14.845L6.83756 15.4222C6.65862 15.6011 6.41842 15.8397 6.22336 16.0783C5.41893 17.0391 4.87083 18.2127 4.66287 19.4491C4.60806 19.757 4.57743 20.0698 4.56454 20.3825L4.55809 20.6179L4.55648 20.8258L4.55648 21.2337L4.55648 22.8667L4.55486 26.1328L4.55164 27.2607L4.55164 28.8937L4.55164 29.0985C4.55164 29.1694 4.54842 29.2177 4.54842 29.2774C4.54842 29.3935 4.53713 29.5079 4.52907 29.6224C4.50489 29.8513 4.47265 30.0802 4.41945 30.3059C4.21633 31.207 3.76656 32.0485 3.13624 32.7224L2.87164 33.0031L2.58125 33.3032L2.29269 33.5917L2.14921 33.7368L2.07667 33.8094L1.99607 33.8948C1.77521 34.1173 1.57854 34.3623 1.38993 34.6106C1.02237 35.1168 0.711246 35.6665 0.487168 36.2517C0.258254 36.8336 0.109942 37.4478 0.0422349 38.0701C0.0245021 38.2248 0.0148295 38.3812 0.00676915 38.5376C0.00354501 38.6923 -0.00129011 38.8584 0.000321965 38.9857L0.000322001 39.8014L0.0486961 211.227L0.0712661 237.354C0.830079 237.354 0.993247 237.354 1.7849 237.354Z" fill="#EFCD8F"/>
<path d="M324.947 42.6923C324.947 55.6621 324.947 29.3467 324.947 29.3467L324.947 16.0011L91.1202 15.9948L89.4863 15.9916L89.2878 15.9895L89.1063 15.9853C88.987 15.9821 88.8667 15.9686 88.7474 15.9589C88.5104 15.9315 88.2745 15.8929 88.0423 15.8365C87.1138 15.6108 86.2423 15.139 85.5556 14.4748L83.263 12.1744L81.8951 10.7885L80.7425 9.63271L80.164 9.05429C79.969 8.85923 79.7956 8.67717 79.5603 8.45793C78.6559 7.63093 77.5314 7.03866 76.3304 6.78073C76.1821 6.74365 76.0286 6.7253 75.8787 6.69628C75.7255 6.67855 75.5758 6.65263 75.4227 6.64456L75.1947 6.62662L74.9625 6.62029L74.8485 6.61712L74.7472 6.61712L74.5445 6.61712L72.9106 6.61396L69.6427 6.60868L63.1113 6.59918L58.695 6.57807L49.6725 6.49785L34.355 6.48624L28.9297 6.48413L28.5202 6.48413C28.3799 6.48574 28.2131 6.48818 28.06 6.49785C27.7472 6.5172 27.4348 6.55381 27.1269 6.61185C26.5127 6.73114 25.9162 6.92782 25.3536 7.20187C24.791 7.47593 24.2622 7.82308 23.7915 8.23416C23.6706 8.33411 23.564 8.44492 23.4495 8.55293L23.1582 8.84319L22.5798 9.42055L20.2703 11.7289L16.4325 15.5578L13.9753 18.0129L12.8184 19.1676L12.2442 19.745C12.0653 19.9239 11.8229 20.1619 11.6278 20.4005C10.8234 21.3613 10.2778 22.5353 10.0699 23.7718C10.0151 24.0797 9.98145 24.3921 9.96856 24.7048L9.96433 24.9402L9.96011 25.1481L9.96011 25.5556L9.96011 27.1895L9.96011 32.6169L9.95589 33.7453L9.95589 35.3781L9.95589 35.5829C9.95589 35.6538 9.95589 35.7016 9.95589 35.7613C9.95589 35.8773 9.94284 35.992 9.93478 36.1064C9.9106 36.3353 9.87821 36.5647 9.82501 36.7904C9.62189 37.6915 9.17183 38.5326 8.54151 39.2065L8.27552 39.4872L7.98842 39.787L7.6971 40.0762L7.55355 40.2208L7.48178 40.2936L7.40156 40.3791C7.18071 40.6016 6.9822 40.8465 6.79359 41.0948C6.42604 41.6009 6.11837 42.1509 5.8943 42.7361C5.66538 43.318 5.51447 43.9314 5.44676 44.5537C5.42903 44.7084 5.42105 44.8649 5.41299 45.0212C5.40976 45.176 5.40293 45.3425 5.40454 45.4698L5.40454 46.2857L5.40455 237.52C28.2666 237.52 266.771 236.98 324.947 236.98C324.947 100.254 324.947 29.7224 324.947 42.6923Z" fill="#242B35"/>
</svg>
