<svg width="641" height="400" viewBox="0 0 641 400" fill="none" xmlns="http://www.w3.org/2000/svg">
<path d="M1.7849 237.354L1.80585 211.227L1.85259 39.8031L1.85259 38.9873C1.85098 38.8423 1.85582 38.7359 1.85904 38.6198C1.86549 38.5037 1.87355 38.3893 1.88645 38.2732C1.93803 37.8138 2.04765 37.3592 2.21853 36.9287C2.38458 36.4967 2.61672 36.0921 2.88754 35.7165C3.02941 35.5343 3.17288 35.3521 3.33731 35.1893L3.39696 35.1264L3.4695 35.0539L3.61459 34.9104L3.90315 34.6219L4.20321 34.3315L4.52101 34.0137C5.38025 33.0996 5.988 31.9518 6.26366 30.7283C6.3362 30.4236 6.38134 30.1125 6.41197 29.7997C6.42326 29.6433 6.43776 29.487 6.43937 29.3306L6.44421 29.1017L6.44421 28.8969L6.44421 27.2639L6.44099 26.136L6.43937 22.8699L6.43937 21.2369L6.43937 20.8291L6.43937 20.6292L6.44421 20.4567C6.45388 20.2261 6.47484 19.9956 6.51514 19.7683C6.66668 18.8559 7.07131 17.9902 7.66455 17.2809C7.9386 16.9552 8.37064 16.5522 8.74464 16.1686L9.89888 15.0127L14.5159 10.3925L18.3456 6.5563L20.6493 4.24459L21.2264 3.66746L21.5133 3.38052C21.5988 3.30152 21.6778 3.2177 21.768 3.14515C22.1163 2.83886 22.5064 2.58254 22.9223 2.37942C23.3382 2.1763 23.7831 2.0296 24.2361 1.94093C24.4634 1.89741 24.694 1.87 24.9245 1.85549C25.0438 1.84905 25.1486 1.84743 25.2791 1.84582L25.687 1.84582L28.9531 1.84421L44.2715 1.83292L53.2916 1.75232L66.3559 1.73136L72.888 1.72169L76.1541 1.71685L77.7871 1.71363L77.9918 1.71363L78.0934 1.71363L78.182 1.71524L78.3594 1.71846L78.5367 1.73136C78.656 1.7362 78.7721 1.75877 78.8914 1.77005C79.0074 1.79262 79.1267 1.80552 79.2412 1.83453C80.1713 2.02959 81.0435 2.48742 81.7463 3.1258C81.9091 3.27734 82.1139 3.4853 82.3041 3.67391L82.8829 4.25103L84.0387 5.40366L85.4245 6.77167L87.7539 9.08499C88.6357 9.93133 89.7496 10.5294 90.9361 10.8131C91.2327 10.8857 91.5342 10.9324 91.8373 10.9663C91.9888 10.9792 92.142 10.9937 92.2935 10.9969L92.5224 11.0017L92.7303 11.0017L94.3634 10.9985L97.6294 10.9921L106.65 10.8808L325.51 10.826C325.507 10.3603 325.507 10.105 325.507 9.68307L106.646 9.62826L97.6262 9.51703L94.3602 9.51058L92.7271 9.50735L92.5272 9.50575L92.3483 9.50091C92.229 9.49769 92.1097 9.48479 91.9904 9.47512C91.7534 9.44771 91.5165 9.40902 91.2843 9.3526C90.3558 9.12691 89.4852 8.65457 88.7985 7.9904L86.5045 5.68997L85.1365 4.30423L83.9839 3.14837L83.4068 2.56964C83.2117 2.37458 83.036 2.19241 82.8006 1.97317C81.8963 1.14618 80.7743 0.554549 79.5733 0.296617C79.425 0.25954 79.2718 0.240195 79.1219 0.211178C78.9687 0.193445 78.8172 0.167651 78.664 0.15959L78.4351 0.141857L78.2046 0.13541L78.0902 0.132185L77.9886 0.132185L77.7839 0.132185L76.1508 0.128963L72.8848 0.124125L66.3527 0.114453L53.2884 0.0934982L44.2683 0.0128949L28.9498 0.00160996L25.6838 -1.12267e-06L25.2759 -1.10485e-06C25.1357 0.00161097 24.968 0.00322333 24.8149 0.0128958C24.5021 0.0322407 24.1926 0.069317 23.8847 0.127352C23.2705 0.246645 22.6724 0.443318 22.1098 0.717371C21.5472 0.991423 21.02 1.33802 20.5493 1.7491C20.4284 1.84904 20.3188 1.96028 20.2043 2.06829L19.9142 2.35846L19.337 2.93558L17.0269 5.24407L13.1907 9.07382L8.57053 13.6908L7.41468 14.845L6.83756 15.4222C6.65862 15.6011 6.41842 15.8397 6.22336 16.0783C5.41893 17.0391 4.87083 18.2127 4.66287 19.4491C4.60806 19.757 4.57743 20.0698 4.56454 20.3825L4.55809 20.6179L4.55648 20.8258L4.55648 21.2337L4.55648 22.8667L4.55487 26.1328L4.55164 27.2607L4.55164 28.8937L4.55164 29.0985C4.55164 29.1694 4.54842 29.2177 4.54842 29.2774C4.54842 29.3935 4.53713 29.5079 4.52907 29.6224C4.50489 29.8513 4.47265 30.0802 4.41945 30.3059C4.21633 31.207 3.76656 32.0485 3.13624 32.7224L2.87164 33.0031L2.58125 33.3032L2.29269 33.5917L2.14921 33.7368L2.07667 33.8094L1.99607 33.8948C1.77521 34.1173 1.57854 34.3623 1.38993 34.6106C1.02237 35.1168 0.711246 35.6665 0.487168 36.2517C0.258254 36.8336 0.109942 37.4478 0.0422349 38.0701C0.0245021 38.2248 0.0148295 38.3812 0.00676915 38.5376C0.00354501 38.6923 -0.00129011 38.8584 0.000321965 38.9857L0.000322001 39.8014L0.0486961 211.227L0.0712661 237.354C0.830079 237.354 0.993247 237.354 1.7849 237.354Z" fill="#EFCD8F"/>
<path d="M324.947 42.6923C324.947 55.6621 324.947 29.3467 324.947 29.3467L324.947 16.0011L91.1202 15.9948L89.4863 15.9916L89.2878 15.9895L89.1063 15.9853C88.987 15.9821 88.8667 15.9686 88.7474 15.9589C88.5104 15.9315 88.2745 15.8929 88.0423 15.8365C87.1138 15.6108 86.2423 15.139 85.5556 14.4748L83.263 12.1744L81.8951 10.7885L80.7424 9.63271L80.164 9.05429C79.969 8.85923 79.7956 8.67717 79.5603 8.45793C78.6559 7.63093 77.5314 7.03866 76.3304 6.78073C76.1821 6.74365 76.0286 6.7253 75.8787 6.69628C75.7255 6.67855 75.5758 6.65263 75.4227 6.64456L75.1947 6.62662L74.9625 6.62029L74.8485 6.61712L74.7472 6.61712L74.5445 6.61712L72.9106 6.61396L69.6427 6.60868L63.1113 6.59918L58.695 6.57807L49.6725 6.49785L34.355 6.48624L28.9297 6.48413L28.5202 6.48413C28.3799 6.48574 28.2131 6.48818 28.06 6.49785C27.7472 6.5172 27.4348 6.55381 27.1269 6.61185C26.5127 6.73114 25.9162 6.92782 25.3536 7.20187C24.791 7.47593 24.2622 7.82308 23.7915 8.23416C23.6706 8.33411 23.564 8.44492 23.4495 8.55293L23.1582 8.84319L22.5798 9.42055L20.2703 11.7289L16.4325 15.5578L13.9753 18.0129L12.8184 19.1676L12.2442 19.745C12.0653 19.9239 11.8229 20.1619 11.6278 20.4005C10.8234 21.3613 10.2778 22.5353 10.0699 23.7718C10.0151 24.0797 9.98145 24.3921 9.96856 24.7048L9.96433 24.9402L9.96011 25.1481L9.96011 25.5556L9.96011 27.1895L9.96011 32.6169L9.95589 33.7453L9.95589 35.3781L9.95589 35.5829C9.95589 35.6538 9.95589 35.7016 9.95589 35.7613C9.95589 35.8773 9.94284 35.992 9.93478 36.1064C9.9106 36.3353 9.87821 36.5647 9.82501 36.7904C9.62189 37.6915 9.17183 38.5326 8.54151 39.2065L8.27552 39.4872L7.98842 39.787L7.6971 40.0762L7.55355 40.2208L7.48178 40.2936L7.40156 40.3791C7.18071 40.6016 6.9822 40.8465 6.79359 41.0948C6.42604 41.6009 6.11837 42.1509 5.8943 42.7361C5.66538 43.318 5.51447 43.9314 5.44676 44.5536C5.42903 44.7084 5.42105 44.8649 5.41299 45.0212C5.40976 45.176 5.40293 45.3425 5.40454 45.4698L5.40454 46.2857L5.40455 237.52C28.2666 237.52 266.771 236.98 324.947 236.98C324.947 100.254 324.947 29.7224 324.947 42.6923Z" fill="#242B35"/>
<path d="M639.215 237.354L639.194 211.227L639.147 39.8031L639.147 38.9873C639.149 38.8423 639.144 38.7359 639.141 38.6198C639.135 38.5037 639.126 38.3893 639.114 38.2732C639.062 37.8138 638.952 37.3592 638.781 36.9287C638.615 36.4967 638.383 36.0921 638.112 35.7165C637.971 35.5343 637.827 35.3521 637.663 35.1893L637.603 35.1264L637.53 35.0539L637.385 34.9104L637.097 34.6219L636.797 34.3315L636.479 34.0137C635.62 33.0996 635.012 31.9518 634.736 30.7283C634.664 30.4236 634.619 30.1125 634.588 29.7997C634.577 29.6433 634.562 29.487 634.561 29.3306L634.556 29.1017L634.556 28.8969L634.556 27.2639L634.559 26.136L634.561 22.8699L634.561 21.2369L634.561 20.8291L634.561 20.6292L634.556 20.4567C634.546 20.2261 634.525 19.9956 634.485 19.7683C634.333 18.8559 633.929 17.9902 633.335 17.2809C633.061 16.9552 632.629 16.5522 632.255 16.1686L631.101 15.0127L626.484 10.3925L622.654 6.5563L620.351 4.24459L619.774 3.66746L619.487 3.38052C619.401 3.30152 619.322 3.2177 619.232 3.14515C618.884 2.83886 618.494 2.58254 618.078 2.37942C617.662 2.1763 617.217 2.0296 616.764 1.94093C616.537 1.89741 616.306 1.87 616.076 1.85549C615.956 1.84905 615.851 1.84743 615.721 1.84582L615.313 1.84582L612.047 1.84421L596.728 1.83292L587.708 1.75232L574.644 1.73136L568.112 1.72169L564.846 1.71685L563.213 1.71363L563.008 1.71363L562.907 1.71363L562.818 1.71524L562.641 1.71846L562.463 1.73136C562.344 1.7362 562.228 1.75877 562.109 1.77005C561.993 1.79262 561.873 1.80552 561.759 1.83453C560.829 2.02959 559.957 2.48742 559.254 3.1258C559.091 3.27734 558.886 3.4853 558.696 3.67391L558.117 4.25103L556.961 5.40366L555.576 6.77167L553.246 9.08499C552.364 9.93133 551.25 10.5294 550.064 10.8131C549.767 10.8857 549.466 10.9324 549.163 10.9663C549.011 10.9792 548.858 10.9937 548.707 10.9969L548.478 11.0017L548.27 11.0017L546.637 10.9985L543.371 10.9921L534.35 10.8808L315.49 10.826C315.493 10.3603 315.493 10.105 315.493 9.68307L534.354 9.62826L543.374 9.51703L546.64 9.51058L548.273 9.50735L548.473 9.50575L548.652 9.50091C548.771 9.49769 548.89 9.48479 549.01 9.47512C549.247 9.44771 549.484 9.40902 549.716 9.3526C550.644 9.12691 551.515 8.65457 552.201 7.9904L554.495 5.68997L555.863 4.30423L557.016 3.14837L557.593 2.56964C557.788 2.37458 557.964 2.19241 558.199 1.97317C559.104 1.14618 560.226 0.554549 561.427 0.296617C561.575 0.25954 561.728 0.240195 561.878 0.211178C562.031 0.193445 562.183 0.167651 562.336 0.15959L562.565 0.141857L562.795 0.13541L562.91 0.132185L563.011 0.132185L563.216 0.132185L564.849 0.128963L568.115 0.124125L574.647 0.114453L587.712 0.0934982L596.732 0.0128949L612.05 0.00160996L615.316 -1.12267e-06L615.724 -1.10485e-06C615.864 0.00161097 616.032 0.00322333 616.185 0.0128958C616.498 0.0322407 616.807 0.069317 617.115 0.127352C617.73 0.246645 618.328 0.443318 618.89 0.717371C619.453 0.991423 619.98 1.33802 620.451 1.7491C620.572 1.84904 620.681 1.96028 620.796 2.06829L621.086 2.35846L621.663 2.93558L623.973 5.24407L627.809 9.07382L632.429 13.6908L633.585 14.845L634.162 15.4222C634.341 15.6011 634.582 15.8397 634.777 16.0783C635.581 17.0391 636.129 18.2127 636.337 19.4491C636.392 19.757 636.423 20.0698 636.435 20.3825L636.442 20.6179L636.444 20.8258L636.444 21.2337L636.444 22.8667L636.445 26.1328L636.448 27.2607L636.448 28.8937L636.448 29.0985C636.448 29.1694 636.452 29.2177 636.452 29.2774C636.452 29.3935 636.463 29.5079 636.471 29.6224C636.495 29.8513 636.527 30.0802 636.581 30.3059C636.784 31.207 637.233 32.0485 637.864 32.7224L638.128 33.0031L638.419 33.3032L638.707 33.5917L638.851 33.7368L638.923 33.8094L639.004 33.8948C639.225 34.1173 639.421 34.3623 639.61 34.6106C639.978 35.1168 640.289 35.6665 640.513 36.2517C640.742 36.8336 640.89 37.4478 640.958 38.0701C640.975 38.2248 640.985 38.3812 640.993 38.5376C640.996 38.6923 641.001 38.8584 641 38.9857L641 39.8014L640.951 211.227L640.929 237.354C640.17 237.354 640.007 237.354 639.215 237.354Z" fill="#EFCD8F"/>
<path d="M316.053 42.6923C316.053 55.6621 316.053 29.3467 316.053 29.3467L316.053 16.0011L549.88 15.9948L551.514 15.9916L551.712 15.9895L551.894 15.9853C552.013 15.9821 552.133 15.9686 552.253 15.9589C552.49 15.9315 552.726 15.8929 552.958 15.8365C553.886 15.6108 554.758 15.139 555.444 14.4748L557.737 12.1744L559.105 10.7885L560.258 9.63271L560.836 9.05429C561.031 8.85923 561.204 8.67717 561.44 8.45793C562.344 7.63093 563.469 7.03866 564.67 6.78073C564.818 6.74365 564.971 6.7253 565.121 6.69628C565.274 6.67855 565.424 6.65263 565.577 6.64456L565.805 6.62662L566.038 6.62029L566.152 6.61712L566.253 6.61712L566.455 6.61712L568.089 6.61396L571.357 6.60868L577.889 6.59918L582.305 6.57807L591.327 6.49785L606.645 6.48624L612.07 6.48413L612.48 6.48413C612.62 6.48574 612.787 6.48818 612.94 6.49785C613.253 6.5172 613.565 6.55381 613.873 6.61185C614.487 6.73114 615.084 6.92782 615.646 7.20187C616.209 7.47593 616.738 7.82308 617.209 8.23416C617.329 8.33411 617.436 8.44492 617.551 8.55293L617.842 8.84319L618.42 9.42055L620.73 11.7289L624.568 15.5578L627.025 18.0129L628.182 19.1676L628.756 19.745C628.935 19.9239 629.177 20.1619 629.372 20.4005C630.177 21.3613 630.722 22.5353 630.93 23.7718C630.985 24.0797 631.019 24.3921 631.031 24.7048L631.036 24.9402L631.04 25.1481L631.04 25.5556L631.04 27.1895L631.04 32.6169L631.044 33.7453L631.044 35.3781L631.044 35.5829C631.044 35.6538 631.044 35.7016 631.044 35.7613C631.044 35.8773 631.057 35.992 631.065 36.1064C631.089 36.3353 631.122 36.5647 631.175 36.7904C631.378 37.6915 631.828 38.5326 632.458 39.2065L632.724 39.4872L633.012 39.787L633.303 40.0762L633.446 40.2208L633.518 40.2936L633.598 40.3791C633.819 40.6016 634.018 40.8465 634.206 41.0948C634.574 41.6009 634.882 42.1509 635.106 42.7361C635.335 43.318 635.486 43.9314 635.553 44.5536C635.571 44.7084 635.579 44.8649 635.587 45.0212C635.59 45.176 635.597 45.3425 635.595 45.4698L635.595 46.2857L635.595 237.52C612.733 237.52 374.229 236.98 316.053 236.98C316.053 100.254 316.053 29.7224 316.053 42.6923Z" fill="#242B35"/>
<path d="M639.215 162.292L639.194 188.419L639.147 359.842L639.147 360.658C639.149 360.803 639.144 360.91 639.141 361.026C639.135 361.142 639.126 361.256 639.114 361.372C639.062 361.832 638.952 362.286 638.781 362.717C638.615 363.149 638.383 363.553 638.112 363.929C637.971 364.111 637.827 364.293 637.663 364.456L637.603 364.519L637.531 364.592L637.385 364.735L637.097 365.024L636.797 365.314L636.479 365.632C635.62 366.546 635.012 367.694 634.736 368.917C634.664 369.222 634.619 369.533 634.588 369.846C634.577 370.002 634.562 370.159 634.561 370.315L634.556 370.544L634.556 370.749L634.556 372.382L634.559 373.51L634.561 376.776L634.561 378.409L634.561 378.816L634.561 379.016L634.556 379.189C634.546 379.419 634.525 379.65 634.485 379.877C634.333 380.79 633.929 381.655 633.335 382.365C633.061 382.69 632.629 383.093 632.255 383.477L631.101 384.633L626.484 389.253L622.654 393.089L620.351 395.401L619.774 395.978L619.487 396.265C619.401 396.344 619.322 396.428 619.232 396.5C618.884 396.807 618.494 397.063 618.078 397.266C617.662 397.469 617.217 397.616 616.764 397.705C616.537 397.748 616.306 397.776 616.076 397.79C615.956 397.796 615.851 397.798 615.721 397.8L615.313 397.8L612.047 397.801L596.728 397.813L587.708 397.893L574.644 397.914L568.112 397.924L564.846 397.929L563.213 397.932L563.008 397.932L562.907 397.932L562.818 397.93L562.641 397.927L562.463 397.914C562.344 397.909 562.228 397.887 562.109 397.875C561.993 397.853 561.873 397.84 561.759 397.811C560.829 397.616 559.957 397.158 559.254 396.52C559.091 396.368 558.886 396.16 558.696 395.972L558.117 395.394L556.961 394.242L555.576 392.874L553.246 390.561C552.364 389.714 551.25 389.116 550.064 388.832C549.767 388.76 549.466 388.713 549.163 388.679C549.011 388.666 548.858 388.652 548.707 388.649L548.478 388.644L548.27 388.644L546.637 388.647L543.371 388.653L534.35 388.765L315.49 388.819C315.493 389.285 315.493 389.54 315.493 389.962L534.354 390.017L543.374 390.128L546.64 390.135L548.273 390.138L548.473 390.14L548.652 390.145C548.771 390.148 548.89 390.161 549.01 390.17C549.247 390.198 549.484 390.236 549.716 390.293C550.644 390.519 551.515 390.991 552.202 391.655L554.495 393.956L555.863 395.341L557.016 396.497L557.593 397.076C557.788 397.271 557.964 397.453 558.199 397.672C559.104 398.499 560.226 399.091 561.427 399.349C561.575 399.386 561.728 399.405 561.878 399.434C562.031 399.452 562.183 399.478 562.336 399.486L562.565 399.504L562.795 399.51L562.91 399.513L563.011 399.513L563.216 399.513L564.849 399.517L568.115 399.521L574.647 399.531L587.712 399.552L596.732 399.633L612.05 399.644L615.316 399.646L615.724 399.646C615.864 399.644 616.032 399.642 616.185 399.633C616.498 399.613 616.807 399.576 617.115 399.518C617.73 399.399 618.328 399.202 618.89 398.928C619.453 398.654 619.98 398.307 620.451 397.896C620.572 397.796 620.681 397.685 620.796 397.577L621.086 397.287L621.663 396.71L623.973 394.401L627.809 390.572L632.429 385.955L633.585 384.8L634.162 384.223C634.341 384.044 634.582 383.806 634.777 383.567C635.581 382.606 636.129 381.433 636.337 380.196C636.392 379.888 636.423 379.576 636.435 379.263L636.442 379.028L636.444 378.82L636.444 378.412L636.444 376.779L636.445 373.513L636.448 372.385L636.448 370.752L636.448 370.547C636.448 370.476 636.452 370.428 636.452 370.368C636.452 370.252 636.463 370.138 636.471 370.023C636.495 369.794 636.527 369.565 636.581 369.34C636.784 368.438 637.233 367.597 637.864 366.923L638.128 366.642L638.419 366.342L638.707 366.054L638.851 365.909L638.923 365.836L639.004 365.751C639.225 365.528 639.421 365.283 639.61 365.035C639.978 364.529 640.289 363.979 640.513 363.394C640.742 362.812 640.89 362.198 640.958 361.575C640.976 361.421 640.985 361.264 640.993 361.108C640.996 360.953 641.001 360.787 641 360.66L641 359.844L640.951 188.419L640.929 162.292C640.17 162.292 640.007 162.292 639.215 162.292Z" fill="#EFCD8F"/>
<path d="M316.053 356.953C316.053 343.983 316.053 370.299 316.053 370.299L316.053 383.644L549.88 383.651L551.514 383.654L551.712 383.656L551.894 383.66C552.013 383.663 552.133 383.677 552.253 383.687C552.49 383.714 552.726 383.753 552.958 383.809C553.886 384.035 554.758 384.506 555.444 385.171L557.737 387.471L559.105 388.857L560.258 390.013L560.836 390.591C561.031 390.786 561.204 390.968 561.44 391.188C562.344 392.015 563.469 392.607 564.67 392.865C564.818 392.902 564.971 392.92 565.121 392.949C565.274 392.967 565.424 392.993 565.577 393.001L565.805 393.019L566.038 393.025L566.152 393.028L566.253 393.028L566.455 393.028L568.089 393.032L571.357 393.037L577.889 393.046L582.305 393.067L591.327 393.148L606.645 393.159L612.07 393.161L612.48 393.161C612.62 393.16 612.787 393.157 612.94 393.148C613.253 393.128 613.565 393.092 613.873 393.034C614.487 392.914 615.084 392.718 615.646 392.444C616.209 392.17 616.738 391.822 617.209 391.411C617.329 391.311 617.436 391.201 617.551 391.093L617.842 390.802L618.42 390.225L620.73 387.917L624.568 384.088L627.025 381.633L628.182 380.478L628.756 379.901C628.935 379.722 629.177 379.484 629.372 379.245C630.177 378.284 630.722 377.11 630.93 375.874C630.985 375.566 631.019 375.253 631.031 374.941L631.036 374.705L631.04 374.497L631.04 374.09L631.04 372.456L631.04 367.029L631.044 365.9L631.044 364.267L631.044 364.063C631.044 363.992 631.044 363.944 631.044 363.884C631.044 363.768 631.057 363.654 631.065 363.539C631.089 363.31 631.122 363.081 631.175 362.855C631.378 361.954 631.828 361.113 632.458 360.439L632.724 360.158L633.012 359.859L633.303 359.569L633.446 359.425L633.518 359.352L633.598 359.266C633.819 359.044 634.018 358.799 634.206 358.551C634.574 358.045 634.882 357.495 635.106 356.909C635.335 356.327 635.486 355.714 635.553 355.092C635.571 354.937 635.579 354.781 635.587 354.624C635.59 354.47 635.597 354.303 635.595 354.176L635.595 353.36L635.595 162.125C612.733 162.125 374.229 162.666 316.053 162.666C316.053 299.392 316.053 369.923 316.053 356.953Z" fill="#242B35"/>
<path d="M1.78492 162.292L1.80587 188.419L1.8526 359.842L1.8526 360.658C1.85099 360.803 1.85582 360.91 1.85904 361.026C1.86549 361.142 1.87355 361.256 1.88645 361.372C1.93804 361.832 2.04766 362.286 2.21854 362.717C2.38458 363.149 2.61672 363.553 2.88755 363.929C3.02941 364.111 3.17288 364.293 3.33731 364.456L3.39696 364.519L3.46951 364.592L3.61459 364.735L3.90315 365.024L4.20322 365.314L4.52101 365.632C5.38025 366.546 5.988 367.694 6.26366 368.917C6.33621 369.222 6.38135 369.533 6.41198 369.846C6.42326 370.002 6.43777 370.159 6.43938 370.315L6.44421 370.544L6.44421 370.749L6.44421 372.382L6.44099 373.51L6.43938 376.776L6.43938 378.409L6.43938 378.816L6.43938 379.016L6.44421 379.189C6.45388 379.419 6.47484 379.65 6.51514 379.877C6.66668 380.79 7.07131 381.655 7.66455 382.365C7.9386 382.69 8.37064 383.093 8.74464 383.477L9.89889 384.633L14.5159 389.253L18.3456 393.089L20.6493 395.401L21.2264 395.978L21.5133 396.265C21.5988 396.344 21.6778 396.428 21.768 396.5C22.1163 396.807 22.5064 397.063 22.9223 397.266C23.3382 397.469 23.7831 397.616 24.2361 397.705C24.4634 397.748 24.694 397.776 24.9245 397.79C25.0438 397.796 25.1486 397.798 25.2791 397.8L25.687 397.8L28.9531 397.801L44.2715 397.813L53.2916 397.893L66.3559 397.914L72.888 397.924L76.1541 397.929L77.7871 397.932L77.9918 397.932L78.0934 397.932L78.182 397.93L78.3594 397.927L78.5367 397.914C78.656 397.909 78.7721 397.887 78.8914 397.875C79.0074 397.853 79.1267 397.84 79.2412 397.811C80.1713 397.616 81.0435 397.158 81.7463 396.52C81.9091 396.368 82.1139 396.16 82.3041 395.972L82.8829 395.394L84.0387 394.242L85.4245 392.874L87.7539 390.561C88.6357 389.714 89.7496 389.116 90.9361 388.832C91.2327 388.76 91.5342 388.713 91.8373 388.679C91.9888 388.666 92.142 388.652 92.2935 388.649L92.5224 388.644L92.7303 388.644L94.3634 388.647L97.6294 388.653L106.65 388.765L325.51 388.82C325.507 389.285 325.507 389.541 325.507 389.962L106.646 390.017L97.6262 390.128L94.3602 390.135L92.7271 390.138L92.5272 390.14L92.3483 390.145C92.229 390.148 92.1097 390.161 91.9904 390.17C91.7534 390.198 91.5165 390.236 91.2843 390.293C90.3558 390.519 89.4852 390.991 88.7985 391.655L86.5045 393.956L85.1365 395.341L83.9839 396.497L83.4068 397.076C83.2117 397.271 83.036 397.453 82.8006 397.672C81.8963 398.499 80.7743 399.091 79.5733 399.349C79.425 399.386 79.2718 399.405 79.1219 399.434C78.9687 399.452 78.8172 399.478 78.664 399.486L78.4351 399.504L78.2046 399.51L78.0902 399.513L77.9886 399.513L77.7839 399.513L76.1508 399.517L72.8848 399.521L66.3527 399.531L53.2884 399.552L44.2683 399.633L28.9498 399.644L25.6838 399.646L25.2759 399.646C25.1357 399.644 24.968 399.642 24.8149 399.633C24.5021 399.613 24.1926 399.576 23.8847 399.518C23.2705 399.399 22.6724 399.202 22.1098 398.928C21.5472 398.654 21.02 398.307 20.5493 397.896C20.4284 397.796 20.3188 397.685 20.2043 397.577L19.9142 397.287L19.337 396.71L17.0269 394.401L13.1907 390.572L8.57054 385.955L7.41468 384.8L6.83756 384.223C6.65862 384.044 6.41842 383.806 6.22336 383.567C5.41894 382.606 4.87083 381.433 4.66287 380.196C4.60806 379.888 4.57743 379.576 4.56454 379.263L4.55809 379.028L4.55648 378.82L4.55648 378.412L4.55648 376.779L4.55487 373.513L4.55164 372.385L4.55164 370.752L4.55164 370.547C4.55164 370.476 4.54842 370.428 4.54842 370.368C4.54842 370.252 4.53713 370.138 4.52907 370.023C4.50489 369.794 4.47265 369.565 4.41945 369.34C4.21633 368.438 3.76656 367.597 3.13624 366.923L2.87165 366.642L2.58125 366.342L2.29269 366.054L2.14922 365.909L2.07668 365.836L1.99607 365.751C1.77522 365.528 1.57854 365.283 1.38993 365.035C1.02238 364.529 0.711249 363.979 0.487171 363.394C0.258257 362.812 0.109945 362.198 0.0422383 361.575C0.0245055 361.421 0.0148329 361.264 0.00677252 361.108C0.00354839 360.953 -0.00128672 360.787 0.000325373 360.66L0.00032548 359.844L0.0487146 188.419L0.0712869 162.292C0.8301 162.292 0.993268 162.292 1.78492 162.292Z" fill="#EFCD8F"/>
<path d="M324.947 356.953C324.947 343.983 324.947 370.299 324.947 370.299L324.947 383.644L91.1202 383.651L89.4863 383.654L89.2878 383.656L89.1063 383.66C88.987 383.663 88.8667 383.677 88.7474 383.687C88.5104 383.714 88.2745 383.753 88.0423 383.809C87.1138 384.035 86.2423 384.506 85.5556 385.171L83.263 387.471L81.8951 388.857L80.7424 390.013L80.164 390.591C79.969 390.786 79.7956 390.968 79.5603 391.188C78.6559 392.015 77.5314 392.607 76.3304 392.865C76.1821 392.902 76.0286 392.92 75.8787 392.949C75.7255 392.967 75.5758 392.993 75.4227 393.001L75.1947 393.019L74.9625 393.025L74.8485 393.028L74.7472 393.028L74.5445 393.028L72.9106 393.032L69.6427 393.037L63.1113 393.046L58.695 393.067L49.6725 393.148L34.355 393.159L28.9297 393.161L28.5202 393.161C28.3799 393.16 28.2131 393.157 28.06 393.148C27.7472 393.128 27.4348 393.092 27.1269 393.034C26.5127 392.914 25.9162 392.718 25.3536 392.444C24.791 392.17 24.2622 391.822 23.7915 391.411C23.6706 391.311 23.564 391.201 23.4495 391.093L23.1582 390.802L22.5798 390.225L20.2703 387.917L16.4325 384.088L13.9753 381.633L12.8184 380.478L12.2442 379.901C12.0653 379.722 11.8229 379.484 11.6278 379.245C10.8234 378.284 10.2778 377.11 10.0699 375.874C10.0151 375.566 9.98145 375.253 9.96856 374.941L9.96433 374.705L9.96011 374.497L9.96011 374.09L9.96011 372.456L9.96011 367.029L9.95589 365.9L9.95589 364.267L9.95589 364.063C9.95589 363.992 9.95589 363.944 9.95589 363.884C9.95589 363.768 9.94284 363.654 9.93478 363.539C9.9106 363.31 9.87821 363.081 9.82501 362.855C9.62189 361.954 9.17183 361.113 8.54151 360.439L8.27552 360.158L7.98843 359.859L7.69711 359.569L7.55356 359.425L7.48178 359.352L7.40156 359.266C7.18071 359.044 6.9822 358.799 6.79359 358.551C6.42604 358.045 6.11838 357.495 5.8943 356.909C5.66539 356.327 5.51447 355.714 5.44676 355.092C5.42903 354.937 5.42105 354.781 5.41299 354.624C5.40976 354.47 5.40293 354.303 5.40454 354.176L5.40454 353.36L5.40457 162.125C28.2666 162.125 266.771 162.666 324.947 162.666C324.947 299.392 324.947 369.923 324.947 356.953Z" fill="#242B35"/>
</svg>
