<svg width="30" height="29" viewBox="0 0 30 29" fill="none" xmlns="http://www.w3.org/2000/svg">
<path d="M28.6913 17.7955H0.326524C0.147181 17.7955 0.000445383 17.9438 0.000445383 18.125V20.5966C0.000445383 20.7778 0.147181 20.9261 0.326524 20.9261H24.9944L19.1127 28.4645C18.9456 28.6787 19.0964 29 19.3695 29H22.3246C22.5243 29 22.7118 28.9094 22.8382 28.7487L29.7184 19.9293C30.3909 19.0642 29.7836 17.7955 28.6913 17.7955ZM29.6736 8.07386H5.00575L10.8874 0.535511C11.0545 0.321307 10.9037 0 10.6306 0H7.67551C7.47579 0 7.2883 0.0906253 7.16194 0.251279L0.281688 9.07074C-0.390849 9.9358 0.216472 11.2045 1.30476 11.2045H29.6736C29.8529 11.2045 29.9997 11.0563 29.9997 10.875V8.40341C29.9997 8.22216 29.8529 8.07386 29.6736 8.07386Z" fill="white"/>
</svg>
