<svg width="44" height="32" viewBox="0 0 44 32" fill="none" xmlns="http://www.w3.org/2000/svg">
<path d="M38.415 0.881721C35.3313 0.0554432 32.1714 1.52665 30.7937 4.23382L24.9055 2.65607L23.0913 9.42667C19.7777 8.88816 16.5287 10.9125 15.6521 14.1842C14.7754 17.456 16.577 20.8337 19.7158 22.024L18.2497 27.4959L13.8047 26.3048C14.632 22.8655 12.5355 19.3525 9.05761 18.4206C5.52385 17.4737 1.88763 19.5437 0.952163 23.0349C0.0166637 26.5263 2.13071 30.1371 5.66448 31.0839C8.80499 31.9254 12.0214 30.3812 13.3563 27.5767L19.2163 29.1469L21.0304 22.3763C24.344 22.9149 27.593 20.8904 28.4697 17.6187C29.3463 14.347 27.5448 10.9694 24.4059 9.77891L25.872 4.30718L30.3089 5.49604C29.3735 8.98726 31.4874 12.598 35.0218 13.5451C38.5556 14.4919 42.1919 12.4218 43.1273 8.93071C44.0627 5.4396 41.9488 1.82859 38.415 0.881721ZM8.24651 25.0302C5.43784 24.2776 1.52322 26.1625 2.26686 23.3872C3.01044 20.6121 5.99978 18.6583 8.80845 19.4109C11.6171 20.1635 13.1989 23.342 12.4553 26.1172C11.8991 27.8399 11.0552 25.7828 8.24651 25.0302ZM27.1551 17.2665C26.4115 20.0416 23.5206 21.6869 20.7123 20.9344C17.9035 20.1818 16.223 17.3118 16.9667 14.5365C17.7102 11.7616 20.6007 10.116 23.4094 10.8686C26.2178 11.6211 27.8986 14.4916 27.1551 17.2665ZM36.6242 8.1722C33.8153 7.41956 30.88 8.62314 31.6235 5.84828C32.3671 3.07332 35.2579 1.42792 38.067 2.18059C40.876 2.93326 42.5562 5.80362 41.8127 8.57847C41.0692 11.3533 39.4333 8.92491 36.6242 8.1722Z" fill="white"/>
</svg>
