<svg width="38" height="29" viewBox="0 0 38 29" fill="none" xmlns="http://www.w3.org/2000/svg">
<path d="M30.4778 8.43079L24.5995 13.6832C24.4521 13.8148 24.4014 14.0238 24.4717 14.2084C24.5421 14.393 24.7191 14.515 24.9166 14.515L26.5289 14.515L26.5289 23.5469C26.5289 23.81 26.742 24.0234 27.0051 24.0234C27.2681 24.0234 27.4812 23.81 27.4812 23.5469L27.4812 14.0386C27.4812 13.7755 27.2681 13.5622 27.0051 13.5622L26.1646 13.5622L30.7949 9.42491L35.4252 13.5622L34.5848 13.5622C34.3218 13.5622 34.1087 13.7755 34.1087 14.0386L34.1087 27.8868L27.4813 27.8868L27.4813 25.4525C27.4813 25.1894 27.2681 24.9761 27.0051 24.9761C26.7421 24.9761 26.529 25.1894 26.529 25.4525L26.529 28.3632C26.529 28.6263 26.7421 28.8396 27.0051 28.8396L34.5848 28.8396C34.8478 28.8396 35.0609 28.6263 35.0609 28.3632L35.0609 14.5149L36.6733 14.5149C36.8707 14.5149 37.0477 14.393 37.1182 14.2083C37.1393 14.153 37.1494 14.0955 37.1494 14.0386C37.1494 13.9054 37.0936 13.7753 36.9904 13.6831L31.112 8.43073C30.9314 8.26938 30.6584 8.26938 30.4778 8.43079Z" fill="#C69749"/>
<path d="M6.41503 14.78L12.0673 19.8015C12.209 19.9274 12.2577 20.1271 12.1902 20.3036C12.1225 20.4801 11.9523 20.5967 11.7624 20.5967L10.2121 20.5967L10.2121 23.7796C10.2121 24.0311 10.0071 24.2351 9.75423 24.2351C9.50133 24.2351 9.2964 24.0311 9.2964 23.7796L9.2964 20.1412C9.2964 19.8897 9.50133 19.6858 9.75423 19.6858L10.5623 19.6858L6.11012 15.7304L1.65791 19.6858L2.46601 19.6858C2.71891 19.6858 2.92383 19.8897 2.92383 20.1412L2.92383 27.9287L9.29634 27.9287L9.29634 25.6014C9.29634 25.3499 9.50126 25.1459 9.75417 25.1459C10.0071 25.1459 10.212 25.3499 10.212 25.6014L10.212 28.3842C10.212 28.6357 10.0071 28.8396 9.75417 28.8396L2.46601 28.8396C2.2131 28.8396 2.00818 28.6357 2.00818 28.3842L2.00818 20.5967L0.45786 20.5967C0.268015 20.5967 0.0978261 20.4801 0.0300675 20.3035C0.00980101 20.2506 3.34817e-05 20.1957 3.34823e-05 20.1412C3.34838e-05 20.014 0.053691 19.8895 0.152948 19.8014L5.80521 14.7799C5.97887 14.6256 6.24136 14.6256 6.41503 14.78Z" fill="#C69749"/>
<path d="M18.2576 0.124281L12.3793 5.51614C12.2318 5.65132 12.1812 5.86579 12.2515 6.05529C12.3219 6.24478 12.4989 6.37005 12.6964 6.37005L14.3087 6.37005L14.3087 8.98657C14.3087 9.25666 14.5218 9.47563 14.7848 9.47563C15.0479 9.47563 15.261 9.25666 15.261 8.98657L15.261 5.88099C15.261 5.61089 15.0479 5.39192 14.7848 5.39192L13.9444 5.39192L18.5747 1.1448L23.205 5.39192L22.3646 5.39192C22.1016 5.39192 21.8885 5.61089 21.8885 5.88098L21.8885 27.8615L15.261 27.8615L15.261 10.9428C15.261 10.6727 15.0479 10.4537 14.7849 10.4537C14.5219 10.4537 14.3088 10.6727 14.3088 10.9428L14.3088 28.3506C14.3088 28.6207 14.5219 28.8396 14.7849 28.8396L22.3646 28.8396C22.6276 28.8396 22.8407 28.6207 22.8407 28.3506L22.8407 6.36999L24.4531 6.36999C24.6505 6.36999 24.8275 6.24478 24.898 6.05522C24.919 5.99843 24.9292 5.93948 24.9292 5.88098C24.9292 5.74431 24.8734 5.61069 24.7702 5.51608L18.8918 0.124216C18.7112 -0.0414165 18.4382 -0.0414145 18.2576 0.124281Z" fill="#C69749"/>
</svg>
