<svg width="36" height="30" viewBox="0 0 36 30" fill="none" xmlns="http://www.w3.org/2000/svg">
<path d="M16.1 7.5C16.1 5.51088 16.9007 3.60322 18.326 2.1967C19.7513 0.790176 21.6844 0 23.7 0C25.7156 0 27.6487 0.790176 29.074 2.1967C30.4993 3.60322 31.3 5.51088 31.3 7.5V21.3C31.3 21.9627 31.8373 22.5 32.5 22.5H34.0756C35.1485 22.5 35.6822 23.8005 34.9185 24.5541L30.2429 29.1682C29.7756 29.6294 29.0244 29.6294 28.5571 29.1682L23.8815 24.5541C23.1178 23.8005 23.6515 22.5 24.7244 22.5H26.3C26.9627 22.5 27.5 21.9627 27.5 21.3V7.5C27.5 6.50544 27.0996 5.55161 26.387 4.84835C25.6744 4.14509 24.7078 3.75 23.7 3.75C22.6922 3.75 21.7256 4.14509 21.013 4.84835C20.3004 5.55161 19.9 6.50544 19.9 7.5V15V22.5C19.9 24.4891 19.0993 26.3968 17.674 27.8033C16.2487 29.2098 14.3156 30 12.3 30C10.2844 30 8.35126 29.2098 6.92599 27.8033C5.50071 26.3968 4.7 24.4891 4.7 22.5V8.7C4.7 8.03726 4.16274 7.5 3.5 7.5H1.92441C0.851487 7.5 0.31784 6.1995 1.08152 5.44587L5.75711 0.831799C6.22442 0.370638 6.97558 0.370638 7.44289 0.8318L12.1185 5.44587C12.8822 6.1995 12.3485 7.5 11.2756 7.5H9.7C9.03726 7.5 8.5 8.03726 8.5 8.7V22.5C8.5 23.4946 8.90036 24.4484 9.61299 25.1516C10.3256 25.8549 11.2922 26.25 12.3 26.25C13.3078 26.25 14.2744 25.8549 14.987 25.1516C15.6996 24.4484 16.1 23.4946 16.1 22.5V15V7.5Z" fill="url(#paint0_linear_15_1482)"/>
<defs>
<linearGradient id="paint0_linear_15_1482" x1="18" y1="0" x2="18" y2="30" gradientUnits="userSpaceOnUse">
<stop stop-color="#C69749"/>
<stop offset="1" stop-color="#DAB46E"/>
</linearGradient>
</defs>
</svg>
