<svg width="35" height="39" viewBox="0 0 35 39" fill="none" xmlns="http://www.w3.org/2000/svg">
<path fill-rule="evenodd" clip-rule="evenodd" d="M2.68524 28.0798H32.7144C33.7283 28.0798 34.5578 28.9034 34.5578 29.9099V36.9433C34.5578 37.9499 33.7283 38.7734 32.7144 38.7734H2.68524C1.67135 38.7734 0.841797 37.9499 0.841797 36.9433V29.9099C0.841797 28.9034 1.67135 28.0798 2.68524 28.0798ZM9.8874 22.5705H4.62404C4.68443 22.0562 4.86877 21.5702 5.1739 21.1159C5.47902 20.6615 6.05112 20.1251 6.89339 19.5066C7.40828 19.128 7.73565 18.8408 7.88186 18.642C8.02488 18.4464 8.09799 18.2571 8.09799 18.0835C8.09799 17.8911 8.02806 17.7301 7.88504 17.5944C7.74201 17.4588 7.56402 17.3925 7.34789 17.3925C7.12541 17.3925 6.94106 17.4619 6.79804 17.6039C6.65501 17.7459 6.55966 17.992 6.51199 18.3486L4.75753 18.2066C4.82746 17.7144 4.95141 17.3326 5.13576 17.058C5.3201 16.7835 5.57755 16.5721 5.91128 16.4238C6.245 16.2755 6.70904 16.2029 7.30022 16.2029C7.91682 16.2029 8.39675 16.2723 8.74001 16.4143C9.08328 16.5532 9.35344 16.7677 9.54732 17.0549C9.74437 17.3452 9.8429 17.6702 9.8429 18.0267C9.8429 18.4085 9.72848 18.7714 9.506 19.1217C9.28033 19.4687 8.87033 19.8505 8.27597 20.2671C7.92318 20.51 7.68798 20.6804 7.5672 20.7751C7.4496 20.8729 7.30975 20.9991 7.14766 21.1569H9.8874V22.5705ZM9.06421 2.16144V8.53217H7.29386V4.3639C7.00781 4.57847 6.73129 4.75202 6.46113 4.88454C6.19097 5.01707 5.85724 5.14644 5.45041 5.26634V3.84957C6.04795 3.6571 6.51199 3.42675 6.83936 3.15854C7.16991 2.89034 7.42735 2.55586 7.61488 2.16144H9.06421ZM6.4071 32.1061L4.75118 31.8126C4.88785 31.2888 5.15165 30.8881 5.54576 30.6073C5.9367 30.3296 6.48974 30.1876 7.20487 30.1876C8.02806 30.1876 8.62241 30.3391 8.98793 30.6451C9.35344 30.9512 9.53778 31.333 9.53778 31.7937C9.53778 32.0619 9.4615 32.308 9.3153 32.5257C9.16591 32.7435 8.94343 32.9359 8.64466 33.1032C8.8894 33.1631 9.07374 33.2326 9.20405 33.3146C9.41383 33.444 9.57592 33.6112 9.69034 33.8195C9.80794 34.0309 9.86515 34.2801 9.86515 34.5704C9.86515 34.9365 9.7698 35.2836 9.57592 35.6212C9.38204 35.9557 9.1087 36.2144 8.74637 36.3942C8.38404 36.5741 7.91046 36.6656 7.32247 36.6656C6.75036 36.6656 6.29586 36.5993 5.96531 36.4637C5.63476 36.3311 5.36142 36.1355 5.14847 35.8768C4.93552 35.618 4.77025 35.293 4.65583 34.9018L6.41028 34.6683C6.4802 35.0185 6.58509 35.2646 6.73129 35.4003C6.87432 35.536 7.05866 35.6054 7.28433 35.6054C7.51635 35.6054 7.7134 35.5202 7.86914 35.3498C8.02488 35.1794 8.10116 34.9522 8.10116 34.6651C8.10116 34.3748 8.02488 34.1508 7.8755 33.9898C7.72612 33.8321 7.5227 33.75 7.26526 33.75C7.12859 33.75 6.93789 33.7847 6.69951 33.851L6.79168 32.6078C6.88703 32.6236 6.96331 32.6299 7.01734 32.6299C7.24301 32.6299 7.43371 32.5573 7.58309 32.4122C7.73565 32.267 7.81193 32.0966 7.81193 31.8978C7.81193 31.7085 7.75472 31.5539 7.6403 31.4434C7.52588 31.3299 7.37014 31.2731 7.16991 31.2731C6.96331 31.2731 6.79804 31.333 6.66773 31.4592C6.53741 31.5823 6.4516 31.7969 6.4071 32.1061ZM2.68524 0H20.3569C21.3708 0 22.2004 0.823556 22.2004 1.83013V8.86349C22.2004 9.87006 21.3708 10.6936 20.3569 10.6936H2.68524C1.67135 10.6936 0.841797 9.87006 0.841797 8.86349V1.83013C0.841797 0.823556 1.67135 0 2.68524 0ZM2.68524 14.0415H26.4975C27.5114 14.0415 28.3409 14.865 28.3409 15.8716V22.905C28.3409 23.9115 27.5114 24.7351 26.4975 24.7351H2.68524C1.67135 24.7351 0.841797 23.9115 0.841797 22.905V15.8684C0.841797 14.8619 1.67135 14.0415 2.68524 14.0415Z" fill="url(#paint0_linear_15_1434)"/>
<defs>
<linearGradient id="paint0_linear_15_1434" x1="17.6998" y1="0" x2="17.6998" y2="38.7734" gradientUnits="userSpaceOnUse">
<stop stop-color="#DAB46E"/>
<stop offset="1" stop-color="#C69749"/>
</linearGradient>
</defs>
</svg>
