<svg width="39" height="33" viewBox="0 0 39 33" fill="none" xmlns="http://www.w3.org/2000/svg">
<path d="M38.2373 9.40999C38.4162 9.63936 38.4097 9.96373 38.2227 10.1866L20.0077 31.8132C19.8914 31.9509 19.7215 32.0302 19.5425 32.0302C19.3636 32.0302 19.1937 31.9507 19.0773 31.8132L0.862438 10.1866C0.675385 9.96373 0.668907 9.63936 0.847788 9.40999L8.00371 0.235083C8.11921 0.0866916 8.29647 0 8.48345 0H30.6016C30.7887 0 30.966 0.0868399 31.0814 0.235083L38.2373 9.40999ZM36.5028 9.1749L30.8008 1.8645L28.1767 9.1749H36.5028ZM21.2673 28.4185L36.4402 10.4037H27.7353L21.2673 28.4185ZM27.1018 8.55479L29.7323 1.22881H20.8689L27.1018 8.55479ZM19.5426 29.6095L26.4383 10.4036H12.6469L19.5426 29.6095ZM26.0227 9.1749L19.5426 1.55807L13.0624 9.1749H26.0227ZM11.9833 8.55479L18.2163 1.22881H9.35275L11.9833 8.55479ZM17.8178 28.4185L11.3499 10.4037H2.64492L17.8178 28.4185ZM10.9084 9.1749L8.28425 1.8645L2.58228 9.1749H10.9084Z" fill="#161C24"/>
</svg>
